<svg width="38" height="38" viewBox="0 0 38 38" fill="none" xmlns="http://www.w3.org/2000/svg">
<rect width="38" height="38" rx="19" fill="white"/>
<path fill-rule="evenodd" clip-rule="evenodd" d="M11.6721 19.0001C11.6721 18.2201 11.8021 17.4731 12.0321 16.7721L7.98912 13.6841C7.1751 15.3378 6.75318 17.1569 6.75612 19.0001C6.75612 20.9101 7.20012 22.7131 7.98612 24.3121L12.0291 21.2181C11.7931 20.5024 11.6726 19.7537 11.6721 19.0001Z" fill="#FBBC05"/>
<path fill-rule="evenodd" clip-rule="evenodd" d="M18.773 11.91C20.467 11.91 21.996 12.51 23.198 13.49L26.693 10C24.563 8.145 21.833 7 18.773 7C14.024 7 9.94299 9.716 7.98999 13.684L12.034 16.772C12.5017 15.3546 13.4052 14.1212 14.6156 13.2478C15.826 12.3745 17.2814 11.9059 18.774 11.909L18.773 11.91Z" fill="#EA4335"/>
<path fill-rule="evenodd" clip-rule="evenodd" d="M18.773 26.09C17.2806 26.0932 15.8253 25.6247 14.6149 24.7516C13.4045 23.8785 12.5009 22.6453 12.033 21.228L7.98901 24.315C8.98043 26.3272 10.5168 28.0205 12.4234 29.2024C14.3299 30.3842 16.5299 31.0071 18.773 31C21.704 31 24.503 29.96 26.603 28.01L22.764 25.041C21.681 25.724 20.317 26.091 18.774 26.091L18.773 26.09Z" fill="#34A853"/>
<path fill-rule="evenodd" clip-rule="evenodd" d="M30.2439 18.9999C30.2439 18.2899 30.134 17.5269 29.971 16.8179H18.7729V21.4549H25.2189C24.8959 23.0349 24.0189 24.2509 22.7639 25.0409L26.603 28.0089C28.809 25.9619 30.2439 22.9109 30.2439 18.9999Z" fill="#4285F4"/>
</svg>
