<svg width="39" height="38" viewBox="0 0 39 38" fill="none" xmlns="http://www.w3.org/2000/svg">
<rect width="39" height="38" rx="19" fill="#005FF9"/>
<path d="M23.561 19C23.561 21.1566 21.7389 22.9103 19.4997 22.9103C17.2604 22.9103 15.4397 21.1566 15.4397 19C15.4397 16.8434 17.2611 15.0897 19.5003 15.0897C21.7396 15.0897 23.561 16.8434 23.561 19ZM19.4997 6C12.0564 6 6 11.8322 6 19C6 26.1678 12.0564 32 19.4997 32C22.2266 32 24.857 31.2186 27.1046 29.7387L27.1431 29.7127L25.3237 27.6765L25.2936 27.6963C23.5604 28.7689 21.5508 29.3373 19.4997 29.335C13.5818 29.335 8.76753 24.6988 8.76753 19C8.76753 13.3005 13.5818 8.665 19.4997 8.665C25.4182 8.665 30.2325 13.3012 30.2325 19C30.2325 19.7389 30.1471 20.4861 29.9792 21.2216C29.6398 22.5627 28.6643 22.9739 27.9324 22.9198C27.1955 22.8617 26.3341 22.3567 26.3285 21.1204V19C26.3285 15.3737 23.2657 12.4247 19.4997 12.4247C15.7343 12.4247 12.6715 15.3737 12.6715 19C12.6715 22.6263 15.7343 25.5753 19.4997 25.5753C20.397 25.5785 21.2861 25.4087 22.1163 25.0756C22.9465 24.7425 23.7013 24.2527 24.3377 23.6342C25.09 24.7617 26.3153 25.4678 27.7106 25.5753C28.8193 25.6597 29.9217 25.3485 30.814 24.6995C31.6229 24.1083 32.2275 23.2524 32.5613 22.2247C32.6144 22.0591 32.7117 21.6787 32.7131 21.6766L32.7152 21.6629C32.9118 20.8378 33 20.0154 33 19C33 11.8322 26.9436 6 19.4997 6Z" fill="#FF9E00"/>
</svg>
