<svg width="38" height="38" viewBox="0 0 38 38" fill="none" xmlns="http://www.w3.org/2000/svg">
<rect width="38" height="38" rx="19" fill="#1890FF"/>
<path d="M27.4928 11.5688L24.7283 26.334C24.7283 26.334 24.3411 27.3587 23.2764 26.866L16.894 21.6834L14.5709 20.4983L10.6626 19.1084C10.6626 19.1084 10.064 18.884 10.0036 18.3905C9.94242 17.8971 10.6812 17.6348 10.6812 17.6348L26.2167 11.1847C26.2167 11.1774 27.4928 10.5819 27.4928 11.5688Z" fill="white"/>
<path d="M16.3975 26.1672C16.3975 26.1672 16.2101 26.1483 15.9802 25.3728C15.7502 24.5981 14.5708 20.4984 14.5708 20.4984L23.9539 14.189C23.9539 14.189 24.4983 13.8428 24.4743 14.189C24.4743 14.189 24.5711 14.2532 24.2807 14.5345C23.9903 14.8231 16.9117 21.5618 16.9117 21.5618" fill="#D2E4F0"/>
<path d="M19.3387 23.6692L16.8142 26.1085C16.8142 26.1085 16.6152 26.2689 16.4038 26.1668L16.887 21.6372" fill="#B5CFE4"/>
</svg>
