<svg width="20" height="20" viewBox="0 0 20 20" fill="none" xmlns="http://www.w3.org/2000/svg">
<path d="M1.63558 9.89485L5.66058 11.2617L15.2174 5.41923C15.3562 5.33485 15.4981 5.52298 15.3787 5.63298L8.1437 12.2924L7.87495 16.0205C7.87056 16.0829 7.88526 16.1452 7.9171 16.1991C7.94893 16.253 7.99641 16.296 8.05322 16.3223C8.11003 16.3486 8.17349 16.357 8.23519 16.3464C8.2969 16.3358 8.35392 16.3067 8.3987 16.263L10.6262 14.0724L14.6987 17.1549C15.1374 17.4874 15.7731 17.253 15.8912 16.7155L18.7268 3.84048C18.8887 3.1061 18.1687 2.4861 17.4668 2.75485L1.61558 8.82485C1.11808 9.01548 1.13183 9.7236 1.63558 9.89485Z" fill="white"/>
</svg>
