<svg width="38" height="38" viewBox="0 0 38 38" fill="none" xmlns="http://www.w3.org/2000/svg">
<g clip-path="url(#clip0_403_112105)">
<path d="M19 38C29.4934 38 38 29.4934 38 19C38 8.50659 29.4934 0 19 0C8.50659 0 0 8.50659 0 19C0 29.4934 8.50659 38 19 38Z" fill="#4D76A1"/>
<path fill-rule="evenodd" clip-rule="evenodd" d="M18.2822 27.3333H19.7735C19.7735 27.3333 20.224 27.2838 20.4539 27.0359C20.6656 26.8083 20.6589 26.3809 20.6589 26.3809C20.6589 26.3809 20.6297 24.3799 21.5584 24.0852C22.4739 23.795 23.6495 26.0192 24.8956 26.8744C25.8378 27.5216 26.5538 27.3797 26.5538 27.3797L29.8855 27.3333C29.8855 27.3333 31.6284 27.2259 30.802 25.8556C30.7343 25.7435 30.3207 24.8419 28.3248 22.9892C26.2358 21.0502 26.5155 21.3638 29.032 18.0097C30.5646 15.9671 31.1773 14.72 30.9859 14.1859C30.8034 13.6772 29.6762 13.8116 29.6762 13.8116L25.9249 13.835C25.9249 13.835 25.6468 13.7971 25.4405 13.9204C25.239 14.0413 25.1093 14.3231 25.1093 14.3231C25.1093 14.3231 24.5155 15.9038 23.7237 17.248C22.0533 20.0846 21.3853 20.2343 21.1124 20.0582C20.4773 19.6477 20.6358 18.4091 20.6358 17.5291C20.6358 14.7803 21.0528 13.6342 19.824 13.3375C19.4162 13.2389 19.1161 13.1739 18.0733 13.1634C16.7348 13.1495 15.6018 13.1675 14.9603 13.4818C14.5336 13.6907 14.2044 14.1564 14.4049 14.1832C14.6528 14.2164 15.2144 14.3346 15.5121 14.74C15.8965 15.2629 15.8829 16.4375 15.8829 16.4375C15.8829 16.4375 16.1038 19.6734 15.3671 20.0754C14.8614 20.3511 14.1678 19.7882 12.6786 17.2148C11.9155 15.8966 11.3394 14.4396 11.3394 14.4396C11.3394 14.4396 11.2283 14.1673 11.0301 14.0216C10.7897 13.8452 10.4537 13.789 10.4537 13.789L6.88895 13.8123C6.88895 13.8123 6.35381 13.8272 6.15737 14.0599C5.98261 14.2669 6.14349 14.695 6.14349 14.695C6.14349 14.695 8.93432 21.2243 12.0943 24.5147C14.9918 27.5314 18.2822 27.3333 18.2822 27.3333Z" fill="white"/>
</g>
<defs>
<clipPath id="clip0_403_112105">
<rect width="38" height="38" fill="white"/>
</clipPath>
</defs>
</svg>
