<svg width="15" height="16" viewBox="0 0 15 16" fill="none" xmlns="http://www.w3.org/2000/svg">
<path d="M5.29677 0.5C4.56494 0.5 3.92458 0.926546 3.61278 1.54253C3.52223 1.69906 3.49755 1.88516 3.54419 2.05989C3.59082 2.23461 3.70494 2.38366 3.86145 2.47423C4.01796 2.5648 4.20402 2.58948 4.37872 2.54283C4.55342 2.49619 4.70244 2.38205 4.79299 2.22552C4.85741 2.00644 5.05068 1.86082 5.29548 1.86082H13.1124C13.4139 1.86082 13.6355 2.08247 13.6355 2.38531V10.2036C13.6391 10.3113 13.6079 10.4173 13.5467 10.5059C13.4855 10.5945 13.3974 10.6611 13.2954 10.6959C13.214 10.7387 13.142 10.7975 13.0839 10.8688C13.0258 10.9401 12.9826 11.0224 12.9571 11.1108C12.9315 11.1992 12.9241 11.2918 12.9352 11.3831C12.9464 11.4744 12.9758 11.5626 13.0219 11.6422C13.0679 11.7219 13.1295 11.7914 13.2031 11.8466C13.2767 11.9019 13.3606 11.9417 13.4499 11.9637C13.5393 11.9856 13.6321 11.9893 13.7229 11.9746C13.8137 11.9598 13.9005 11.9268 13.9783 11.8776C14.5825 11.5619 15 10.9265 15 10.2036V2.38531C15 1.35052 14.1458 0.5 13.1124 0.5H5.29677ZM1.88756 3.91108C0.854235 3.91108 0 4.7616 0 5.7951V13.6147C0 14.6495 0.854235 15.5 1.88756 15.5H9.70323C10.7378 15.5 11.5921 14.6495 11.5921 13.6147V5.79639C11.5921 4.76289 10.7378 3.91237 9.70323 3.91237L1.88756 3.91108ZM1.88756 5.27191H9.70323C10.006 5.27191 10.2276 5.49356 10.2276 5.7951V13.6147C10.2298 13.6841 10.2177 13.7533 10.1921 13.8179C10.1665 13.8825 10.1279 13.9412 10.0788 13.9903C10.0297 14.0395 9.97101 14.078 9.90642 14.1036C9.84182 14.1292 9.77268 14.1413 9.70323 14.1392H1.88756C1.81822 14.1411 1.74922 14.1289 1.68478 14.1032C1.62034 14.0775 1.56182 14.039 1.51284 13.9898C1.46385 13.9407 1.42541 13.8821 1.3999 13.8176C1.37438 13.7531 1.36232 13.684 1.36446 13.6147V5.79639C1.36446 5.49484 1.58607 5.2732 1.88756 5.2732V5.27191Z" fill="#51FF35"/>
</svg>
