<svg width="10" height="10" viewBox="0 0 10 10" fill="none" xmlns="http://www.w3.org/2000/svg">
<path d="M3.23701 0.417358C2.78976 0.417358 2.39843 0.677988 2.20787 1.05437C2.15253 1.15001 2.13745 1.26372 2.16595 1.37049C2.19445 1.47725 2.2642 1.56832 2.35984 1.62366C2.45549 1.679 2.5692 1.69408 2.67596 1.66558C2.78272 1.63708 2.87379 1.56733 2.92913 1.47169C2.9685 1.33783 3.08661 1.24885 3.23622 1.24885H8.01339C8.19764 1.24885 8.33307 1.38429 8.33307 1.56933V6.34649C8.33524 6.41229 8.31621 6.47704 8.27878 6.53119C8.24135 6.58535 8.18751 6.62605 8.1252 6.64728C8.07544 6.67343 8.03147 6.70937 7.99595 6.75293C7.96042 6.7965 7.93406 6.84679 7.91844 6.90079C7.90283 6.95479 7.89829 7.01139 7.9051 7.0672C7.9119 7.123 7.92991 7.17685 7.95804 7.22552C7.98617 7.27419 8.02384 7.31667 8.06879 7.35042C8.11375 7.38417 8.16506 7.40849 8.21965 7.42192C8.27423 7.43535 8.33097 7.43762 8.38645 7.42858C8.44193 7.41954 8.49502 7.39939 8.54252 7.36933C8.91181 7.17641 9.16693 6.78822 9.16693 6.34649V1.56933C9.16693 0.937043 8.64488 0.417358 8.01339 0.417358H3.23701ZM1.15354 2.50161C0.522047 2.50161 0 3.0213 0 3.65279V8.43074C0 9.06303 0.522047 9.58271 1.15354 9.58271H5.92992C6.5622 9.58271 7.08425 9.06303 7.08425 8.43074V3.65358C7.08425 3.02208 6.5622 2.5024 5.92992 2.5024L1.15354 2.50161ZM1.15354 3.33311H5.92992C6.11496 3.33311 6.25039 3.46854 6.25039 3.65279V8.43074C6.2517 8.47318 6.24431 8.51544 6.22867 8.55492C6.21303 8.59439 6.18947 8.63024 6.15944 8.66027C6.12942 8.69029 6.09357 8.71385 6.05409 8.72949C6.01462 8.74513 5.97236 8.75253 5.92992 8.75122H1.15354C1.11117 8.75242 1.069 8.74494 1.02961 8.72925C0.990234 8.71356 0.954476 8.68999 0.924537 8.65997C0.894599 8.62996 0.871111 8.59415 0.855518 8.55473C0.839924 8.51531 0.832553 8.47312 0.833858 8.43074V3.65358C0.833858 3.46933 0.969291 3.33389 1.15354 3.33389V3.33311Z" fill="black"/>
</svg>
