<svg width="30" height="30" viewBox="0 0 30 30" fill="none" xmlns="http://www.w3.org/2000/svg">
<path d="M22.6963 18.1106C23.1847 18.3156 23.3939 18.999 23.3939 19.3406C23.4637 19.8874 23.3242 20.1606 23.1149 20.1606C22.9057 20.1606 22.6265 19.9556 22.3475 19.4773C22.0684 18.999 21.9289 18.5206 22.0684 18.2473C22.2777 18.1106 22.487 18.0422 22.6963 18.1106Z" fill="white"/>
<path d="M19.8356 20.2292C20.1148 20.2292 20.4636 20.3659 20.8123 20.6392C21.3704 21.1176 21.5797 21.6642 21.3007 22.0742C21.1612 22.2792 20.8123 22.4159 20.5333 22.4159C20.1845 22.4159 19.8356 22.2792 19.6264 22.0742C19.0682 21.5959 18.9288 20.9125 19.2775 20.5025C19.3474 20.3659 19.5566 20.2292 19.8356 20.2292Z" fill="white"/>
<path d="M13.2083 25.6268C5.95289 25.6268 0.0927734 19.8866 0.0927734 12.8482C0.0927734 5.80969 5.95289 0.0012207 13.2083 0.0012207C20.4636 0.0012207 26.3237 5.74136 26.3237 12.8482C26.3237 15.2399 25.6262 17.4949 24.5099 19.4083C24.4402 19.4767 24.3704 19.4767 24.3704 19.34C23.8821 16.1966 21.9287 14.4882 19.1381 13.9416C18.8591 13.8732 18.8591 13.7365 19.208 13.7365C20.1148 13.6682 21.3008 13.6682 21.9985 13.8049C22.0682 13.4632 22.0682 13.1215 22.0682 12.8482C22.0682 8.20141 18.1614 4.37466 13.4176 4.37466C8.67366 4.37466 4.76692 8.20141 4.76692 12.8482C4.76692 17.4949 8.67366 21.3217 13.4176 21.3217H13.8362C13.6966 20.57 13.6269 19.8184 13.6966 18.9983C13.6966 18.4517 13.8362 18.3833 14.0454 18.7933C15.2314 20.8434 16.9755 22.6201 20.3241 23.3718C23.045 23.9868 25.7657 24.6701 28.7655 28.2919C29.0446 28.6336 28.6259 28.9752 28.3469 28.7018C25.347 26.1052 22.6263 25.2168 20.1148 25.2168C16.9755 25.2852 15.0918 25.6268 13.2083 25.6268Z" fill="white"/>
</svg>
