<svg width="39" height="38" viewBox="0 0 39 38" fill="none" xmlns="http://www.w3.org/2000/svg">
<rect x="0.333496" width="38" height="38" rx="19" fill="#1878F1"/>
<path d="M19.3336 3.96631C12.7167 3.96631 7.3335 9.40179 7.3335 16.0828C7.3335 18.3559 7.95052 20.715 9.16742 23.0948C10.1243 24.9659 11.4535 26.8557 13.1182 28.7115C15.9343 31.8509 18.7141 33.795 18.8311 33.8762C18.9821 33.9811 19.1577 34.0336 19.3335 34.0336C19.5093 34.0336 19.6849 33.9811 19.836 33.8762C19.9529 33.795 22.7327 31.8509 25.5488 28.7115C27.2135 26.8557 28.5427 24.9659 29.4996 23.0948C30.7165 20.7151 31.3335 18.3559 31.3335 16.0828C31.3336 9.40179 25.9504 3.96631 19.3336 3.96631ZM27.9404 22.2746C27.0569 24.0069 25.8195 25.7674 24.2626 27.507C22.2669 29.7372 20.2463 31.365 19.3336 32.0586C18.4207 31.3649 16.4003 29.7371 14.4045 27.507C12.8476 25.7673 11.6103 24.0068 10.7268 22.2746C9.64415 20.1519 9.09525 18.0687 9.09525 16.0828C9.09525 10.3732 13.6881 5.72806 19.3336 5.72806C24.979 5.72806 29.5719 10.3732 29.5719 16.0828C29.5719 18.0687 29.0229 20.1518 27.9404 22.2746Z" fill="white"/>
<path d="M26.3807 13.3015C25.8942 13.3015 25.4998 13.6959 25.4998 14.1823V16.7706H23.738V13.0078C23.738 12.5214 23.3436 12.127 22.8572 12.127C22.3707 12.127 21.9763 12.5214 21.9763 13.0078V16.7706H21.1023C20.791 16.7706 20.4922 16.825 20.2145 16.924V11.8333C20.2145 11.3468 19.8201 10.9524 19.3337 10.9524C18.8472 10.9524 18.4528 11.3468 18.4528 11.8333V16.924C18.1679 16.8223 17.8676 16.7704 17.565 16.7706H16.691V13.0078C16.691 12.5214 16.2966 12.127 15.8101 12.127C15.3237 12.127 14.9293 12.5214 14.9293 13.0078V16.7706H13.1675V14.1823C13.1675 13.6959 12.7731 13.3015 12.2866 13.3015C11.8002 13.3015 11.4058 13.6959 11.4058 14.1823C11.4058 14.1823 11.4075 17.692 11.4088 17.7122C11.4415 20.7496 13.9221 23.2106 16.9672 23.2106C17.8996 23.2106 18.7408 22.815 19.3337 22.1836C19.9264 22.815 20.7677 23.2106 21.7001 23.2106C24.7452 23.2106 27.2258 20.7496 27.2585 17.7122C27.2598 17.692 27.2615 14.1823 27.2615 14.1823C27.2615 13.6959 26.8671 13.3015 26.3807 13.3015ZM16.9672 21.4489C15.1764 21.4489 13.6712 20.2029 13.2729 18.5324H17.565C18.0546 18.5324 18.4528 18.9307 18.4528 19.4201V19.9634C18.4528 20.7825 17.7863 21.4489 16.9672 21.4489ZM21.7001 21.4489C20.881 21.4489 20.2145 20.7825 20.2145 19.9634V19.4202C20.2145 18.9307 20.6127 18.5325 21.1023 18.5325H25.3944C24.9961 20.2029 23.4909 21.4489 21.7001 21.4489Z" fill="white"/>
</svg>
