<svg width="38" height="38" viewBox="0 0 38 38" fill="none" xmlns="http://www.w3.org/2000/svg">
<path d="M19 0C8.50909 0 0 8.50909 0 19C0 29.4909 8.50909 38 19 38C29.4909 38 38 29.4909 38 19C38 8.50909 29.4909 0 19 0ZM19 36.0545C9.6 36.0545 1.94546 28.4 1.94546 19C1.94546 9.6 9.6 1.94545 19 1.94545C28.4 1.94545 36.0545 9.6 36.0545 19C36.0545 28.4 28.4 36.0545 19 36.0545Z" fill="#1878F1"/>
<path d="M19.0002 35.2547C27.9773 35.2547 35.2547 27.9773 35.2547 19.0002C35.2547 10.023 27.9773 2.74561 19.0002 2.74561C10.023 2.74561 2.74561 10.023 2.74561 19.0002C2.74561 27.9773 10.023 35.2547 19.0002 35.2547Z" fill="#1878F1"/>
<path d="M18.9999 1.94556C9.59986 1.94556 1.94531 9.6001 1.94531 19.0001C1.94531 28.4001 9.59986 36.0546 18.9999 36.0546C28.3999 36.0546 36.0544 28.4001 36.0544 19.0001C36.0544 9.6001 28.3999 1.94556 18.9999 1.94556ZM18.9999 35.2546C10.0362 35.2546 2.74531 27.9637 2.74531 19.0001C2.74531 10.0365 10.0362 2.74556 18.9999 2.74556C27.9635 2.74556 35.2544 10.0365 35.2544 19.0001C35.2544 27.9637 27.9635 35.2546 18.9999 35.2546Z" fill="white"/>
<path d="M27.4001 18H10.6001V29.4H27.4001V18Z" fill="white"/>
<path d="M20.5638 21.8C20.5638 20.9272 19.8547 20.2363 19.0002 20.2363C18.1456 20.2363 17.4365 20.9454 17.4365 21.8C17.4365 22.3818 17.7638 22.9091 18.2365 23.1636L17.4365 27.1636H20.5638L19.7638 23.1636C20.2365 22.9091 20.5638 22.3818 20.5638 21.8Z" fill="#1878F1"/>
<path d="M14.5456 16.6001H12.3638V18.0001H14.5456V16.6001Z" fill="white"/>
<path d="M25.6364 16.6001H23.4546V18.0001H25.6364V16.6001Z" fill="white"/>
<path d="M25.6365 14.2728C25.6365 10.6183 22.6547 7.63647 19.0001 7.63647C15.3456 7.63647 12.3638 10.6183 12.3638 14.2728V16.6001H14.5456V14.2728C14.5456 11.8183 16.5456 9.81829 19.0001 9.81829C21.4547 9.81829 23.4547 11.8183 23.4547 14.2728V16.6001H25.6365V14.2728Z" fill="white"/>
</svg>
