<svg width="38" height="38" viewBox="0 0 38 38" fill="none" xmlns="http://www.w3.org/2000/svg">
<rect width="38" height="38" rx="19" fill="#1878F1"/>
<path d="M24.7008 15.0748L24.335 16.907C24.1942 17.6119 23.4684 18.2069 22.7502 18.2069H21.0838C20.8221 18.2069 20.5472 17.9811 20.4955 17.7244L20.2531 16.5104C20.2313 16.4022 20.1674 16.307 20.0755 16.2458C19.9835 16.1846 19.871 16.1625 19.7627 16.1842C19.6544 16.206 19.5592 16.2699 19.4981 16.3618C19.4369 16.4538 19.4147 16.5663 19.4365 16.6746L19.679 17.8886C19.8081 18.5343 20.4255 19.0401 21.0846 19.0401H22.751C23.8775 19.0401 24.9316 18.1752 25.1532 17.072L25.5523 15.0756L24.7008 15.0748ZM18.035 15.0748L17.5051 17.7244C17.4535 17.9819 17.1785 18.2069 16.9169 18.2069H15.2504C14.5322 18.2069 13.8065 17.6119 13.6657 16.907L13.5765 16.4629C13.5657 16.4093 13.5445 16.3583 13.514 16.3128C13.4835 16.2673 13.4444 16.2283 13.3988 16.198C13.3532 16.1677 13.3021 16.1466 13.2484 16.136C13.1947 16.1254 13.1394 16.1255 13.0858 16.1363C13.0321 16.1471 12.9811 16.1683 12.9356 16.1988C12.8901 16.2293 12.8511 16.2685 12.8208 16.3141C12.7905 16.3596 12.7694 16.4107 12.7588 16.4644C12.7483 16.5181 12.7484 16.5734 12.7591 16.6271V16.6279L12.8483 17.0712C13.0691 18.1744 14.1239 19.0392 15.2496 19.0392H16.916C17.5751 19.0392 18.1917 18.5343 18.3217 17.8877L18.8841 15.074H18.035V15.0748ZM19.8331 29.7036C19.7402 29.7036 19.6499 29.6726 19.5767 29.6155C19.5034 29.5584 19.4513 29.4784 19.4287 29.3883C19.4061 29.2982 19.4143 29.2031 19.4519 29.1181C19.4896 29.0332 19.5545 28.9633 19.6365 28.9195L27.5645 24.6718L26.1531 22.5537C26.0933 22.4642 26.0706 22.3551 26.0895 22.2492C26.1085 22.1432 26.1677 22.0487 26.2547 21.9855L30.2958 19.0467C29.4268 18.6168 27.7087 17.8686 26.0722 17.7553C25.9621 17.7471 25.8597 17.6958 25.7872 17.6125C25.7148 17.5291 25.6783 17.4205 25.6856 17.3103C25.6893 17.2557 25.7038 17.2023 25.7282 17.1533C25.7526 17.1042 25.7864 17.0605 25.8277 17.0245C25.8691 16.9886 25.9171 16.9612 25.9691 16.9439C26.0211 16.9266 26.0759 16.9197 26.1306 16.9237C28.6327 17.0979 31.184 18.5668 31.2915 18.6301C31.3517 18.6647 31.4022 18.7138 31.4385 18.7729C31.4748 18.8321 31.4957 18.8994 31.4993 18.9687C31.5028 19.0379 31.4889 19.107 31.4589 19.1696C31.4289 19.2321 31.3836 19.2862 31.3273 19.3267L27.0688 22.4246L28.5127 24.5918C28.5453 24.6399 28.5674 24.6944 28.5774 24.7517C28.5875 24.8089 28.5854 24.8676 28.5713 24.924C28.5571 24.9804 28.5312 25.0332 28.4953 25.0789C28.4594 25.1245 28.4142 25.1621 28.3627 25.1892L20.0306 29.6527C19.9702 29.6862 19.9022 29.7037 19.8331 29.7036Z" fill="white"/>
<path d="M20.2811 28.0472C20.198 28.047 20.1168 28.022 20.0481 27.9754C19.9793 27.9288 19.926 27.8627 19.8951 27.7855C19.8642 27.7084 19.8571 27.6238 19.8746 27.5426C19.8922 27.4614 19.9336 27.3873 19.9936 27.3298C20.6177 26.7332 21.3034 26.065 22.0391 25.3301C23.5064 23.8628 24.3913 21.2457 24.6046 19.94C24.611 19.884 24.6287 19.8299 24.6566 19.781C24.6845 19.732 24.7221 19.6892 24.767 19.6552C24.812 19.6212 24.8633 19.5966 24.918 19.5831C24.9727 19.5695 25.0296 19.5671 25.0852 19.5761C25.1409 19.5852 25.1941 19.6054 25.2417 19.6356C25.2893 19.6658 25.3302 19.7053 25.3621 19.7518C25.394 19.7983 25.4161 19.8507 25.4271 19.906C25.4381 19.9613 25.4378 20.0182 25.4261 20.0733C25.2612 21.0865 24.4363 24.1111 22.6282 25.9192C21.8875 26.6599 21.1968 27.3323 20.5693 27.9322C20.4915 28.0061 20.3883 28.0473 20.2811 28.0472ZM21.5 31.5375C21.4314 31.5372 21.3639 31.5201 21.3034 31.4875L9.63841 25.2384C9.58695 25.2114 9.54178 25.1738 9.50585 25.1281C9.46991 25.0824 9.44402 25.0296 9.42987 24.9732C9.41571 24.9169 9.41361 24.8581 9.4237 24.8009C9.43379 24.7436 9.45585 24.6892 9.48843 24.641L10.9332 22.4738L6.67383 19.3759C6.61748 19.3354 6.57218 19.2815 6.54207 19.219C6.51197 19.1565 6.49802 19.0874 6.5015 19.0181C6.50498 18.9488 6.52578 18.8815 6.562 18.8223C6.59822 18.7631 6.6487 18.714 6.70882 18.6794C6.81631 18.616 9.36761 17.1471 11.8706 16.9729C11.9805 16.9667 12.0885 17.0036 12.1716 17.0758C12.2547 17.148 12.3064 17.2498 12.3155 17.3595C12.3231 17.4698 12.2866 17.5785 12.2142 17.6619C12.1417 17.7453 12.0391 17.7966 11.9289 17.8045C10.2933 17.9178 8.57522 18.666 7.70535 19.096L11.7464 22.0347C11.8335 22.098 11.8927 22.1925 11.9116 22.2984C11.9306 22.4043 11.9078 22.5135 11.8481 22.603L10.4358 24.721L18.6305 29.1112C17.5257 28.083 16.4395 27.0349 15.3726 25.9675C13.5912 24.1861 12.7488 21.1465 12.5747 20.125C12.5561 20.016 12.5816 19.9042 12.6455 19.814C12.7094 19.7239 12.8065 19.6628 12.9154 19.6442C13.0244 19.6257 13.1362 19.6511 13.2264 19.715C13.3166 19.779 13.3776 19.8761 13.3962 19.985C13.5478 20.8699 14.3427 23.7586 15.9625 25.3784C19.3828 28.7987 21.7442 30.7818 21.7683 30.8018C21.8472 30.8682 21.8987 30.9615 21.913 31.0636C21.9273 31.1657 21.9034 31.2695 21.8458 31.355C21.8073 31.4112 21.7557 31.4572 21.6955 31.489C21.6352 31.5208 21.5682 31.5374 21.5 31.5375ZM24.188 10.918C24.2347 11.1988 24.2763 11.4771 24.3105 11.7512C28.3374 12.0928 30.5288 12.7744 30.6662 13.196C30.4771 13.7992 26.416 14.8741 19.0004 14.8741C11.584 14.8741 7.52371 13.7992 7.33457 13.2185C7.39456 13.0277 8.37442 12.3828 11.9664 11.9345C12.0761 11.9206 12.1757 11.8637 12.2435 11.7764C12.3113 11.6891 12.3417 11.5784 12.328 11.4687C12.3133 11.3597 12.2563 11.2607 12.1693 11.1933C12.0824 11.1258 11.9724 11.0952 11.8631 11.1079C6.50219 11.777 6.50219 12.8535 6.50219 13.2076C6.50219 15.679 18.4905 15.7073 19.0004 15.7073C19.5103 15.7073 31.4986 15.679 31.4986 13.2076C31.4986 11.8028 27.625 11.1879 24.188 10.918Z" fill="white"/>
<path d="M19.0005 14.0409C14.8152 14.0409 13.5063 13.6201 13.4529 13.6026C13.37 13.575 13.2979 13.522 13.2467 13.4511C13.1956 13.3802 13.168 13.2951 13.168 13.2077C13.168 11.5662 13.6737 9.27488 14.0987 7.64178C14.3278 6.76191 15.2902 6.27698 16.1492 6.61859L19.0005 7.7601L21.8517 6.61943C22.7083 6.27614 23.6731 6.76191 23.9023 7.64345C24.2497 8.97659 24.833 11.4737 24.833 13.2077C24.8329 13.2951 24.8053 13.3802 24.7542 13.4511C24.7031 13.522 24.6309 13.575 24.548 13.6026C24.4947 13.6201 23.1857 14.0409 19.0005 14.0409ZM14.0078 12.8802C14.5761 12.9935 16.0434 13.2077 19.0005 13.2077C21.9559 13.2077 23.4232 12.9935 23.9931 12.8794C23.9273 11.2588 23.4115 9.06325 23.0957 7.85175C22.9882 7.44098 22.565 7.23101 22.1608 7.39265L19.1554 8.59415C19.0564 8.63493 18.9453 8.63493 18.8463 8.59415L15.8409 7.39265C15.4368 7.23101 15.0127 7.44264 14.9061 7.85175C14.5894 9.06575 14.0737 11.2629 14.0078 12.8802Z" fill="white"/>
</svg>
