<svg width="39" height="38" viewBox="0 0 39 38" fill="none" xmlns="http://www.w3.org/2000/svg">
<g clip-path="url(#clip0_701_7302)">
<path d="M19.6737 38.0134C30.1708 38.0134 38.6804 29.5038 38.6804 19.0067C38.6804 8.50959 30.1708 0 19.6737 0C9.17659 0 0.666992 8.50959 0.666992 19.0067C0.666992 29.5038 9.17659 38.0134 19.6737 38.0134Z" fill="#1878F1"/>
<path d="M19.6735 26.6925C18.8017 26.6925 17.9969 25.9146 17.4201 24.5062C16.8835 23.1783 16.5885 21.4077 16.5885 19.5432C16.5885 18.4433 16.6823 17.4105 16.8701 16.4716C17.7152 16.9545 18.8687 17.3971 19.6735 17.3971C20.4649 17.3971 21.6319 16.9947 22.4769 16.5252C22.6513 17.4373 22.7586 18.4568 22.7586 19.5432C22.7586 21.4077 22.4501 23.1783 21.9136 24.5062C21.3368 25.9146 20.5454 26.6925 19.6735 26.6925ZM14.9252 27.5376H12.873C12.6986 27.5376 12.5645 27.4035 12.5645 27.2291V14.1242C12.5645 14.0706 12.5779 14.0169 12.6047 13.9767L13.6241 12.1793C13.6778 12.0854 13.7851 12.0318 13.9058 12.0318C14.0131 12.0318 14.1204 12.0854 14.1741 12.1793L15.2069 13.9767C15.2337 14.0169 15.2471 14.0706 15.2471 14.1242C15.2471 15.4119 15.2605 16.3643 15.2874 17.2898C15.3008 17.7593 15.3142 18.2421 15.3142 18.7653C15.0325 18.9933 14.7508 19.2347 14.4826 19.4896C13.9326 20.0395 13.0473 20.965 13.0473 21.7699V26.0219C13.0473 26.317 13.1949 26.5987 13.4363 26.773C13.5973 26.8937 13.7985 26.9608 13.9863 26.9608C14.0936 26.9608 14.1875 26.9474 14.2948 26.9072L15.2471 26.5987V27.2291C15.2471 27.4035 15.0996 27.5376 14.9252 27.5376ZM26.4607 27.5376H24.4084C24.2341 27.5376 24.0999 27.4035 24.0999 27.2291V26.5852L25.0523 26.9072C25.1462 26.9474 25.2401 26.9608 25.3474 26.9608C25.5352 26.9608 25.7364 26.9072 25.8973 26.7864C26.1522 26.6121 26.2997 26.3304 26.2997 26.0219V21.7699C26.2997 20.9516 25.4144 20.0932 24.8242 19.5835C24.556 19.342 24.2743 19.114 23.9792 18.8994C23.9926 18.336 24.006 17.8129 24.0329 17.3032C24.0597 16.3643 24.0999 15.3851 24.0999 14.1242C24.0999 14.0706 24.1133 14.0304 24.1402 13.9767L25.1193 12.1927C25.173 12.0854 25.2803 12.0318 25.3876 12.0318C25.4949 12.0184 25.6022 12.0854 25.6559 12.1793L26.7289 13.9633C26.7692 14.0169 26.7826 14.0706 26.7826 14.1242V27.2291C26.7826 27.4035 26.635 27.5376 26.4607 27.5376ZM15.6093 19.3286C15.3142 17.9336 15.5288 15.479 16.1592 13.1182C16.5214 11.7635 17.5542 8.53088 19.3382 7.59195C19.4321 7.55171 19.5394 7.55171 19.6333 7.59195C21.4173 8.53088 22.5306 11.7903 22.933 13.1451C23.6305 15.5595 23.8987 18.0275 23.6305 19.4225C23.9121 19.6237 24.1804 19.8383 24.4084 20.0529C24.9852 20.5492 25.6693 21.2601 25.6693 21.7699V26.0219C25.6693 26.1292 25.6156 26.2231 25.5352 26.2767C25.4815 26.317 25.4144 26.3304 25.3474 26.3304C25.3071 26.3304 25.2803 26.3304 25.2535 26.317L22.2355 25.2976C22.3294 25.1098 22.4233 24.922 22.4903 24.7342C23.1073 23.2319 23.3488 21.4613 23.3756 19.8383V19.2481C23.3622 18.2958 23.2683 17.33 23.0939 16.4045L23.0537 16.1765L23.0269 16.0558L22.9061 15.5595C22.5842 14.3523 21.9672 12.9305 20.9344 12.1927C20.5588 11.9379 20.1296 11.8037 19.6735 11.8037C19.3248 11.8037 19.0297 11.8842 18.7078 11.9915C18.6944 12.0049 18.6675 12.0184 18.6541 12.0184L18.6407 12.0318L18.587 12.0586C17.4335 12.689 16.7897 14.2718 16.4543 15.5058L16.3202 16.0155L16.2934 16.1228L16.2531 16.3509C16.0787 17.2361 15.9849 18.1482 15.958 19.0469V19.7578C15.9849 21.4077 16.2263 23.2185 16.8433 24.7342C16.9238 24.922 17.0043 25.1098 17.0982 25.311L14.0936 26.317C14.0533 26.3304 14.0265 26.3304 13.9863 26.3304C13.9326 26.3304 13.8655 26.317 13.8119 26.2767C13.7314 26.2231 13.6778 26.1292 13.6778 26.0219V21.7699C13.6778 21.2601 14.3618 20.4956 14.9252 19.9456C15.1264 19.7444 15.3544 19.5298 15.6093 19.3286ZM19.6735 30.4483C19.4992 30.4483 19.3516 30.3141 19.3516 30.1398V28.1278H19.0431C18.7346 28.1278 18.4529 28.0339 18.2249 27.8729L17.3664 30.0727C17.3128 30.1934 17.2055 30.2739 17.0713 30.2739C17.0445 30.2739 17.0043 30.2605 16.964 30.2471C16.8031 30.18 16.7226 30.0056 16.7897 29.8447L17.742 27.3766C17.6347 27.1754 17.5676 26.934 17.5676 26.6925V26.0621C18.0773 26.773 18.7748 27.323 19.6735 27.323C20.5722 27.323 21.2563 26.773 21.766 26.0621V26.6925C21.766 26.9206 21.7124 27.1352 21.6185 27.323L22.5574 29.8044C22.6245 29.9654 22.544 30.1532 22.3696 30.2068C22.3428 30.2203 22.3025 30.2203 22.2623 30.2203C22.1416 30.2203 22.0209 30.1532 21.9672 30.0191L21.149 27.8595C20.9076 28.0205 20.6125 28.1278 20.2905 28.1278H19.982V30.1398C19.982 30.3141 19.8479 30.4483 19.6735 30.4483ZM19.6735 18.9128C18.6139 18.9128 17.742 19.7713 17.742 20.8309C17.742 21.8772 18.6139 22.7088 19.6735 22.7088C20.7332 22.7088 21.5916 21.8772 21.5916 20.8309C21.5916 19.7713 20.7332 18.9128 19.6735 18.9128ZM19.6735 19.5432C18.9358 19.5432 18.3724 20.1066 18.3724 20.8309C18.3724 21.5284 18.9492 22.0918 19.6735 22.0918C20.3844 22.0918 20.9612 21.5284 20.9612 20.8309C20.9612 20.1066 20.3978 19.5432 19.6735 19.5432ZM17.0177 15.8412C17.4201 14.245 18.0773 13.0512 18.8956 12.6085L18.9224 12.5817C19.2041 12.4744 19.4187 12.4342 19.6735 12.4342C20.0223 12.4342 20.3308 12.5281 20.5722 12.7158C21.3368 13.1987 21.9538 14.3523 22.3428 15.8814C21.5916 16.3374 20.4113 16.7667 19.6735 16.7667C18.9224 16.7667 17.7688 16.2972 17.0177 15.8412Z" fill="#FDFDFD"/>
</g>
<defs>
<clipPath id="clip0_701_7302">
<rect width="38" height="38" fill="white" transform="translate(0.666992)"/>
</clipPath>
</defs>
</svg>
