<svg width="39" height="38" viewBox="0 0 39 38" fill="none" xmlns="http://www.w3.org/2000/svg">
<rect x="0.666992" width="38" height="38" rx="19" fill="#1878F1"/>
<path fill-rule="evenodd" clip-rule="evenodd" d="M20.041 7.00643C17.6531 6.9263 15.3001 7.59707 13.3134 8.92431C11.0796 10.4177 9.4437 12.6507 8.69314 15.2308C8.48989 15.206 8.24651 15.2169 7.95751 15.2987C6.87852 15.6052 6.06736 16.4889 5.70246 17.2676C5.22883 18.2824 5.02923 19.6249 5.23977 21.01C5.44886 22.3911 6.03233 23.5296 6.76211 24.2364C7.49409 24.9436 8.32058 25.1734 9.14159 25.0008C10.364 24.7399 10.9701 24.5447 10.7989 23.4063L9.97063 17.8854C10.0548 16.3828 10.4871 14.9203 11.2335 13.6135C11.9798 12.3067 13.0198 11.1913 14.2713 10.3554C15.9579 9.22712 17.9558 8.65604 19.9839 8.72254C22.012 8.78904 23.9682 9.48979 25.5772 10.7262C26.6881 11.5779 27.6016 12.6599 28.2551 13.8978C28.9085 15.1358 29.2865 16.5004 29.363 17.8982L28.7835 21.7599C28.1548 23.4833 27.0504 24.9932 25.5983 26.1144C24.1462 27.2356 22.406 27.9222 20.5796 28.0944H18.1107C17.9596 28.0941 17.81 28.1236 17.6703 28.1812C17.5307 28.2389 17.4038 28.3235 17.2969 28.4303C17.1901 28.5371 17.1054 28.6639 17.0476 28.8035C16.9899 28.9431 16.9603 29.0928 16.9606 29.2438V29.8503C16.9603 30.0014 16.9898 30.1511 17.0475 30.2907C17.1052 30.4304 17.1899 30.5573 17.2968 30.6641C17.4037 30.7709 17.5306 30.8556 17.6703 30.9132C17.8099 30.9709 17.9596 31.0004 18.1107 31.0001H21.2236C21.3745 31.0003 21.524 30.9707 21.6635 30.913C21.803 30.8553 21.9296 30.7707 22.0363 30.6638C22.1429 30.557 22.2274 30.4302 22.2849 30.2907C22.3424 30.1511 22.3717 30.0016 22.3712 29.8507V29.5332C25.168 28.8484 27.6046 27.1359 29.1962 24.7363L30.1935 25.0008C31.005 25.2114 31.8413 24.9432 32.5729 24.2364C33.3027 23.5292 33.8858 22.3911 34.0953 21.01C34.3069 19.6245 34.1011 18.2846 33.6333 17.2676C33.1637 16.2507 32.4642 15.6048 31.6567 15.3731C31.3184 15.2757 30.9514 15.2399 30.6364 15.2308C29.9586 12.8973 28.5537 10.8411 26.6263 9.36146C24.7316 7.90694 22.4284 7.08327 20.041 7.00643Z" fill="white"/>
<path fill-rule="evenodd" clip-rule="evenodd" d="M23.6848 16.9383C24.0802 16.9388 24.4593 17.0961 24.7389 17.3758C25.0185 17.6554 25.1757 18.0346 25.1761 18.43C25.1754 18.8254 25.0181 19.2044 24.7385 19.484C24.4589 19.7636 24.0798 19.921 23.6844 19.9217C23.2886 19.9218 22.9089 19.7647 22.6288 19.485C22.3486 19.2053 22.191 18.8258 22.1905 18.43C22.1906 18.2339 22.2294 18.0398 22.3045 17.8587C22.3796 17.6776 22.4897 17.5131 22.6284 17.3745C22.7671 17.236 22.9318 17.1261 23.113 17.0512C23.2942 16.9763 23.4884 16.9378 23.6844 16.9379L23.6848 16.9383ZM19.6673 16.9383C19.9623 16.9385 20.2506 17.0261 20.4958 17.19C20.741 17.354 20.9321 17.587 21.0449 17.8596C21.1577 18.1321 21.1871 18.432 21.1295 18.7213C21.0719 19.0106 20.9298 19.2764 20.7212 19.4849C20.5126 19.6935 20.2469 19.8355 19.9575 19.893C19.6682 19.9506 19.3683 19.921 19.0958 19.8082C18.8233 19.6953 18.5903 19.5042 18.4264 19.2589C18.2625 19.0137 18.175 18.7253 18.1749 18.4304C18.1747 18.2343 18.2132 18.0402 18.2881 17.859C18.363 17.6779 18.473 17.5133 18.6116 17.3746C18.7502 17.236 18.9148 17.1261 19.096 17.0512C19.2771 16.9762 19.4713 16.9381 19.6673 16.9383ZM15.6509 16.9383C15.8496 16.9339 16.0471 16.9692 16.2319 17.0422C16.4168 17.1152 16.5852 17.2244 16.7272 17.3634C16.8693 17.5023 16.9821 17.6682 17.0592 17.8514C17.1363 18.0346 17.176 18.2313 17.176 18.43C17.176 18.6287 17.1363 18.8254 17.0592 19.0086C16.9821 19.1918 16.8693 19.3577 16.7272 19.4966C16.5852 19.6356 16.4168 19.7448 16.2319 19.8178C16.0471 19.8907 15.8496 19.9261 15.6509 19.9217C15.2593 19.9156 14.8858 19.7557 14.611 19.4766C14.3362 19.1975 14.1822 18.8215 14.1822 18.4298C14.1822 18.0381 14.3362 17.6622 14.611 17.3831C14.8858 17.1039 15.2593 16.9444 15.6509 16.9383ZM19.6673 10.5293C15.2922 10.5293 11.7666 13.9389 11.7666 18.4296C11.7666 20.5865 12.5821 22.4927 13.9107 23.8914L13.4393 26.0048C13.2838 26.7003 13.7662 27.1681 14.3917 26.82L16.4551 25.6688C17.469 26.1078 18.5625 26.3331 19.6673 26.3307C24.0439 26.3307 27.5673 22.9233 27.5673 18.4307C27.5673 13.9396 24.0439 10.53 19.6673 10.53V10.5293Z" fill="white"/>
</svg>
