<svg width="39" height="38" viewBox="0 0 39 38" fill="none" xmlns="http://www.w3.org/2000/svg">
<rect x="0.333496" width="38" height="38" rx="19" fill="#1878F1"/>
<path fill-rule="evenodd" clip-rule="evenodd" d="M11.9583 16.6969C10.8645 16.6969 9.97451 17.5869 9.97451 18.6812V29.3742C9.97451 30.4686 10.8645 31.3586 11.9583 31.3586H25.7867C26.8806 31.3586 27.7704 30.4686 27.7704 29.3742V18.6812C27.7704 17.587 26.8804 16.697 25.7866 16.697L11.9583 16.6969ZM25.7867 31.9998H11.9583C10.5112 31.9998 9.3335 30.8219 9.3335 29.3744V18.6811C9.3335 17.2335 10.5112 16.0557 11.9583 16.0557H25.7867C27.2339 16.0557 28.4116 17.2335 28.4116 18.6811V29.3742C28.4116 30.8219 27.2337 31.9998 25.7867 31.9998Z" fill="white"/>
<path fill-rule="evenodd" clip-rule="evenodd" d="M22.9097 16.0556H25.2687V7.98279C25.2687 7.09297 24.92 6.2546 24.2873 5.62186C23.6551 4.98949 22.8162 4.64119 21.9262 4.64119H15.8203C14.9301 4.64119 14.0914 4.98949 13.459 5.62168C12.8263 6.2546 12.4778 7.09297 12.4778 7.98297V16.0556H14.8367V7.98279C14.8367 7.723 14.9395 7.47635 15.1264 7.28942C15.2172 7.19774 15.3252 7.12494 15.4443 7.07522C15.5634 7.02551 15.6911 6.99987 15.8201 6.99977H21.9265C22.187 6.99977 22.4328 7.10286 22.6199 7.28942C22.7117 7.38012 22.7846 7.48811 22.8343 7.60715C22.8841 7.7262 22.9098 7.85393 22.9099 7.98297L22.9097 16.0556ZM25.5893 16.6968H22.5891C22.547 16.6968 22.5053 16.6886 22.4664 16.6725C22.4275 16.6564 22.3921 16.6328 22.3623 16.603C22.3325 16.5732 22.3089 16.5378 22.2928 16.4989C22.2767 16.46 22.2685 16.4183 22.2685 16.3762V7.98279C22.2683 7.938 22.2591 7.89372 22.2414 7.85254C22.2238 7.81136 22.1982 7.77411 22.166 7.74297C22.1347 7.71098 22.0974 7.6855 22.0563 7.66803C22.0151 7.65055 21.9709 7.64141 21.9262 7.64114H15.8203C15.7311 7.64114 15.6458 7.67731 15.5796 7.74297C15.5476 7.77423 15.5221 7.81152 15.5046 7.85268C15.4872 7.89385 15.478 7.93807 15.4777 7.98279V16.3762C15.4777 16.5532 15.3347 16.6968 15.1572 16.6968H12.157C12.072 16.6967 11.9905 16.6629 11.9304 16.6028C11.8703 16.5427 11.8365 16.4612 11.8364 16.3762V7.98279C11.8364 6.92133 12.2517 5.92231 13.0053 5.16814C13.7591 4.41451 14.7585 4 15.8199 4H21.9263C22.9876 4 23.9872 4.41451 24.7408 5.16814C25.4946 5.92231 25.9097 6.92151 25.9097 7.98279V16.3762C25.9097 16.5532 25.7661 16.6968 25.5893 16.6968ZM20.8043 19.3184H16.9422C16.859 19.3156 16.7802 19.2806 16.7223 19.2208C16.6645 19.161 16.6321 19.0811 16.6321 18.9979C16.632 18.9147 16.6644 18.8347 16.7222 18.7749C16.78 18.715 16.8588 18.68 16.942 18.6772H20.8043C20.8893 18.6772 20.9708 18.711 21.031 18.7711C21.0911 18.8312 21.1249 18.9128 21.1249 18.9978C21.1249 19.0828 21.0911 19.1644 21.031 19.2245C20.9708 19.2846 20.8893 19.3184 20.8043 19.3184ZM13.5614 23.4998C13.5052 23.4997 13.45 23.4848 13.4013 23.4566C13.3527 23.4284 13.3123 23.3879 13.2842 23.3392C13.2561 23.2905 13.2413 23.2353 13.2413 23.1791C13.2413 23.1229 13.2561 23.0676 13.2841 23.0189L15.2149 19.6744C15.2587 19.6034 15.3285 19.5523 15.4094 19.5319C15.4903 19.5116 15.5759 19.5235 15.6482 19.5652C15.7204 19.6069 15.7736 19.6751 15.7964 19.7553C15.8192 19.8356 15.8098 19.9216 15.7703 19.995L13.8397 23.3395C13.78 23.442 13.672 23.4998 13.5614 23.4998ZM24.1849 23.4998C24.1286 23.4998 24.0732 23.485 24.0244 23.4569C23.9755 23.4288 23.9349 23.3884 23.9066 23.3397L21.9758 19.9952C21.9548 19.9587 21.9411 19.9185 21.9356 19.8767C21.9301 19.835 21.9329 19.7926 21.9438 19.7519C21.9547 19.7112 21.9735 19.6731 21.9991 19.6397C22.0248 19.6063 22.0567 19.5783 22.0932 19.5572C22.1297 19.5362 22.1699 19.5225 22.2117 19.517C22.2534 19.5115 22.2958 19.5143 22.3365 19.5252C22.3772 19.5361 22.4153 19.5549 22.4487 19.5805C22.4821 19.6062 22.5101 19.6381 22.5312 19.6746L24.4621 23.0191C24.4903 23.0678 24.5051 23.123 24.5051 23.1793C24.5051 23.2355 24.4903 23.2908 24.4622 23.3395C24.4342 23.3882 24.3937 23.4287 24.3451 23.4569C24.2964 23.485 24.2411 23.4999 24.1849 23.5V23.4998ZM15.5033 28.5354C15.4469 28.5355 15.3915 28.5208 15.3426 28.4927C15.2937 28.4646 15.2531 28.4241 15.2248 28.3753L13.2841 25.0134C13.2416 24.9397 13.2301 24.8522 13.2521 24.77C13.2741 24.6879 13.3279 24.6179 13.4015 24.5754C13.4752 24.5329 13.5627 24.5213 13.6448 24.5434C13.727 24.5654 13.797 24.6191 13.8395 24.6928L15.7805 28.0545C15.8086 28.1032 15.8234 28.1585 15.8234 28.2147C15.8233 28.2709 15.8086 28.3261 15.7805 28.3748C15.7524 28.4235 15.712 28.464 15.6634 28.4922C15.6147 28.5204 15.5595 28.5353 15.5033 28.5354ZM22.243 28.5354C22.1867 28.5353 22.1315 28.5205 22.0828 28.4923C22.0341 28.4641 21.9937 28.4236 21.9656 28.3749C21.9376 28.3262 21.9228 28.2709 21.9228 28.2147C21.9228 28.1585 21.9376 28.1032 21.9657 28.0545L23.9066 24.6928C23.9276 24.6563 23.9557 24.6243 23.9891 24.5987C24.0225 24.5731 24.0606 24.5543 24.1013 24.5434C24.1419 24.5325 24.1844 24.5297 24.2261 24.5352C24.2678 24.5407 24.3081 24.5543 24.3446 24.5754C24.381 24.5964 24.413 24.6244 24.4386 24.6578C24.4643 24.6913 24.4831 24.7294 24.494 24.77C24.5049 24.8107 24.5077 24.8531 24.5022 24.8949C24.4967 24.9366 24.483 24.9769 24.462 25.0134L22.5208 28.3751C22.4927 28.4239 22.4522 28.4645 22.4034 28.4926C22.3547 28.5208 22.2993 28.5355 22.243 28.5354ZM20.8043 29.3547H16.9422C16.8572 29.3547 16.7756 29.321 16.7155 29.2609C16.6553 29.2008 16.6215 29.1192 16.6215 29.0342C16.6215 28.9492 16.6552 28.8676 16.7153 28.8075C16.7755 28.7473 16.857 28.7135 16.942 28.7135H20.8043C20.9818 28.7135 21.1247 28.8571 21.1247 29.0341C21.1247 29.0762 21.1165 29.1179 21.1004 29.1568C21.0843 29.1957 21.0608 29.231 21.031 29.2608C21.0013 29.2905 20.966 29.3142 20.9271 29.3303C20.8882 29.3464 20.8463 29.3547 20.8043 29.3547Z" fill="white"/>
<path fill-rule="evenodd" clip-rule="evenodd" d="M15.9756 18.3521C15.8044 18.3524 15.6403 18.4205 15.5193 18.5415C15.3982 18.6626 15.3301 18.8266 15.3297 18.9978C15.33 19.169 15.3981 19.3331 15.5191 19.4541C15.6402 19.5752 15.8043 19.6433 15.9754 19.6435C16.1467 19.6434 16.3109 19.5753 16.432 19.4542C16.553 19.3331 16.6211 19.1689 16.6211 18.9976C16.6209 18.8265 16.5528 18.6625 16.4318 18.5415C16.3108 18.4204 16.1467 18.3524 15.9756 18.3521ZM15.9756 20.2847C15.2661 20.2847 14.6886 19.7074 14.6886 18.9978C14.6889 18.6566 14.8246 18.3295 15.0658 18.0882C15.3071 17.847 15.6342 17.7113 15.9754 17.7109C16.3166 17.7113 16.6438 17.847 16.885 18.0882C17.1263 18.3295 17.262 18.6566 17.2623 18.9978C17.2623 19.7074 16.6852 20.2847 15.9756 20.2847ZM21.7701 18.3521C21.5989 18.3524 21.4348 18.4205 21.3138 18.5415C21.1927 18.6625 21.1246 18.8266 21.1244 18.9978C21.1245 19.169 21.1926 19.3332 21.3136 19.4542C21.4347 19.5753 21.5989 19.6434 21.7701 19.6435C21.9413 19.6433 22.1054 19.5752 22.2265 19.4541C22.3475 19.333 22.4156 19.1689 22.4157 18.9976C22.4154 18.8265 22.3473 18.6625 22.2263 18.5415C22.1052 18.4205 21.9412 18.3524 21.7701 18.3521ZM21.7701 20.2847C21.4289 20.2844 21.1017 20.1487 20.8605 19.9074C20.6192 19.6661 20.4835 19.339 20.4832 18.9978C20.4834 18.2881 21.0605 17.7109 21.7701 17.7109C22.1113 17.7113 22.4384 17.847 22.6797 18.0882C22.9209 18.3295 23.0566 18.6566 23.0569 18.9978C23.0569 19.7074 22.4798 20.2847 21.7701 20.2847ZM15.9756 28.4118C15.8044 28.412 15.6403 28.4801 15.5192 28.6011C15.3981 28.7222 15.33 28.8863 15.3297 29.0575C15.3301 29.2287 15.3982 29.3927 15.5192 29.5137C15.6402 29.6347 15.8043 29.7029 15.9754 29.7032C16.1466 29.703 16.3108 29.6349 16.4319 29.5138C16.5529 29.3927 16.621 29.2285 16.6211 29.0573C16.621 28.8862 16.553 28.722 16.4319 28.601C16.3109 28.48 16.1468 28.4119 15.9756 28.4118ZM15.9756 30.3442C15.2661 30.3442 14.6886 29.7672 14.6886 29.0575C14.6889 28.7163 14.8246 28.3892 15.0658 28.1479C15.3071 27.9067 15.6342 27.771 15.9754 27.7706C16.3166 27.771 16.6438 27.9067 16.885 28.1479C17.1263 28.3892 17.262 28.7163 17.2623 29.0575C17.2623 29.7671 16.6852 30.3444 15.9756 30.3442ZM21.7701 28.4118C21.5989 28.412 21.4347 28.48 21.3136 28.6011C21.1926 28.7222 21.1245 28.8863 21.1244 29.0575C21.1246 29.2287 21.1927 29.3928 21.3138 29.5138C21.4348 29.6349 21.5989 29.703 21.7701 29.7032C21.9412 29.7029 22.1053 29.6347 22.2263 29.5136C22.3474 29.3926 22.4155 29.2285 22.4157 29.0573C22.4155 28.8862 22.3474 28.7221 22.2264 28.6011C22.1053 28.4801 21.9412 28.412 21.7701 28.4118ZM21.7701 30.3442C21.4289 30.3439 21.1018 30.2082 20.8605 29.967C20.6193 29.7258 20.4836 29.3987 20.4832 29.0575C20.4834 28.3478 21.0605 27.7706 21.7701 27.7706C22.1113 27.771 22.4384 27.9067 22.6797 28.1479C22.9209 28.3892 23.0566 28.7163 23.0569 29.0575C23.0566 29.3987 22.9208 29.7258 22.6796 29.967C22.4383 30.2082 22.1112 30.3439 21.7701 30.3442ZM24.6671 23.3703C24.4959 23.3706 24.3318 23.4387 24.2108 23.5597C24.0897 23.6807 24.0216 23.8448 24.0212 24.016C24.0215 24.1872 24.0896 24.3513 24.2107 24.4723C24.3318 24.5934 24.4959 24.6615 24.6671 24.6617C24.8383 24.6615 25.0024 24.5934 25.1235 24.4724C25.2445 24.3513 25.3125 24.1872 25.3126 24.016C25.3124 23.8448 25.2444 23.6807 25.1234 23.5597C25.0023 23.4386 24.8383 23.3705 24.6671 23.3703ZM24.6671 25.3028C23.9576 25.3028 23.3802 24.7257 23.3802 24.016C23.3806 23.6748 23.5163 23.3476 23.7575 23.1064C23.9988 22.8651 24.3259 22.7294 24.6671 22.7291C25.0083 22.7294 25.3354 22.8651 25.5766 23.1064C25.8179 23.3477 25.9535 23.6748 25.9538 24.016C25.9538 24.7255 25.3767 25.3028 24.6671 25.3028ZM13.0784 23.3703C12.9072 23.3705 12.7431 23.4386 12.6221 23.5597C12.501 23.6807 12.4329 23.8448 12.4327 24.016C12.4328 24.1872 12.5009 24.3513 12.622 24.4724C12.743 24.5934 12.9072 24.6615 13.0784 24.6617C13.2496 24.6615 13.4137 24.5934 13.5347 24.4723C13.6558 24.3513 13.7239 24.1872 13.7241 24.016C13.7237 23.8448 13.6556 23.6808 13.5346 23.5598C13.4136 23.4387 13.2495 23.3706 13.0784 23.3703ZM13.0784 25.3028C12.3688 25.3028 11.7915 24.7257 11.7915 24.016C11.7919 23.3062 12.3686 22.7291 13.0784 22.7291C13.4196 22.7294 13.7467 22.8651 13.988 23.1064C14.2292 23.3476 14.3649 23.6748 14.3653 24.016C14.3653 24.7255 13.7881 25.3028 13.0784 25.3028ZM16.6974 26.4672C16.6553 26.4673 16.6137 26.459 16.5748 26.443C16.5359 26.4269 16.5006 26.4033 16.4708 26.3736C16.441 26.3439 16.4174 26.3086 16.4013 26.2697C16.3851 26.2309 16.3768 26.1892 16.3768 26.1472V21.9082C16.3768 21.8231 16.4106 21.7416 16.4707 21.6815C16.5308 21.6214 16.6124 21.5876 16.6974 21.5876C16.7824 21.5876 16.864 21.6214 16.9241 21.6815C16.9842 21.7416 17.018 21.8231 17.018 21.9082V26.1472C17.018 26.1892 17.0097 26.2309 16.9935 26.2697C16.9774 26.3086 16.9538 26.3439 16.924 26.3736C16.8942 26.4033 16.8589 26.4269 16.82 26.443C16.7811 26.459 16.7395 26.4673 16.6974 26.4672Z" fill="white"/>
<path fill-rule="evenodd" clip-rule="evenodd" d="M17.5422 22.2286H15.8523C15.7673 22.2286 15.6858 22.1948 15.6256 22.1347C15.5655 22.0746 15.5317 21.993 15.5317 21.908C15.5317 21.823 15.5655 21.7414 15.6256 21.6813C15.6858 21.6212 15.7673 21.5874 15.8523 21.5874H17.542C17.627 21.5874 17.7086 21.6212 17.7687 21.6813C17.8288 21.7414 17.8626 21.823 17.8626 21.908C17.8626 21.993 17.8288 22.0746 17.7687 22.1347C17.7086 22.1948 17.6272 22.2286 17.5422 22.2286ZM17.5422 26.467H15.8523C15.7674 26.467 15.6859 26.4333 15.6259 26.3732C15.5658 26.3132 15.5321 26.2317 15.5321 26.1468C15.5321 26.0619 15.5658 25.9804 15.6259 25.9204C15.6859 25.8603 15.7674 25.8266 15.8523 25.8266H17.542C17.627 25.8266 17.7084 25.8603 17.7685 25.9204C17.8285 25.9804 17.8623 26.0619 17.8623 26.1468C17.8623 26.2317 17.8285 26.3132 17.7685 26.3732C17.7084 26.4333 17.6271 26.467 17.5422 26.467ZM19.5343 23.7069H20.5585C21.2585 23.7069 21.5725 23.3357 21.5725 22.9678C21.5725 22.5999 21.2585 22.2286 20.5583 22.2286H19.5343V23.7069ZM20.5585 24.3481H19.2137C19.1287 24.348 19.0472 24.3142 18.9871 24.2541C18.927 24.194 18.8932 24.1125 18.8931 24.0275V21.908C18.8931 21.731 19.0367 21.5874 19.2135 21.5874H20.5585C21.6448 21.5874 22.2137 22.282 22.2137 22.9678C22.2137 23.654 21.6448 24.3481 20.5585 24.3481Z" fill="white"/>
<path fill-rule="evenodd" clip-rule="evenodd" d="M19.2138 26.4677C19.1287 26.4677 19.0472 26.4339 18.9871 26.3738C18.927 26.3137 18.8932 26.2322 18.8932 26.1471V24.0277C18.8921 23.9849 18.8997 23.9424 18.9153 23.9027C18.931 23.8629 18.9544 23.8266 18.9843 23.7961C19.0142 23.7655 19.0498 23.7412 19.0892 23.7246C19.1286 23.708 19.1709 23.6995 19.2137 23.6995C19.2564 23.6995 19.2987 23.708 19.3381 23.7246C19.3775 23.7412 19.4132 23.7655 19.443 23.7961C19.4729 23.8266 19.4963 23.8629 19.512 23.9027C19.5276 23.9424 19.5352 23.9849 19.5342 24.0277L19.5343 26.1471C19.5343 26.3242 19.3906 26.4677 19.2138 26.4677Z" fill="white"/>
</svg>
