<svg width="25" height="25" viewBox="0 0 25 25" fill="none" xmlns="http://www.w3.org/2000/svg">
<g clip-path="url(#clip0_431_23936)">
<path d="M1.5 12.5C1.5 6.4339 6.4339 1.5 12.5 1.5C18.5661 1.5 23.5 6.4339 23.5 12.5C23.5 18.5661 18.5661 23.5 12.5 23.5C6.4339 23.5 1.5 18.5661 1.5 12.5Z" stroke="#51FF35" stroke-width="3"/>
<path fill-rule="evenodd" clip-rule="evenodd" d="M18.5444 8.28577C18.8472 8.5885 18.8472 9.08655 18.5444 9.38928L11.2202 16.7135C11.0688 16.8649 10.8687 16.943 10.6685 16.943C10.4683 16.943 10.2681 16.8649 10.1167 16.7135L6.45459 13.0514C6.15186 12.7487 6.15186 12.2506 6.45459 11.9479C6.75732 11.6451 7.25537 11.6451 7.55811 11.9479L10.6685 15.0582L17.4409 8.28577C17.7437 7.97815 18.2417 7.97815 18.5444 8.28577Z" fill="#51FF35"/>
</g>
<defs>
<clipPath id="clip0_431_23936">
<rect width="25" height="25" fill="white"/>
</clipPath>
</defs>
</svg>
