<svg width="188" height="46" viewBox="0 0 188 46" fill="none" xmlns="http://www.w3.org/2000/svg">
<path d="M38.9321 29.175C39.0446 28.9575 39.0521 28.7025 38.9396 28.4925C37.3946 25.4025 33.8246 23.3775 32.6321 22.77C32.6771 22.2675 32.7071 21.8475 32.7146 21.5475C34.3121 20.7825 35.3171 19.785 35.3171 18.5475C35.3171 17.145 33.9971 15.9525 31.5221 15.075C31.3496 10.83 30.6146 3.75 27.5246 3.75C26.2946 3.75 25.4996 4.2975 24.7871 4.785C24.0971 5.2575 23.5121 5.6625 22.4996 5.6625C21.4871 5.6625 20.8946 5.2575 20.2121 4.785C19.4996 4.2975 18.7046 3.75 17.4746 3.75C14.3846 3.75 13.6496 10.83 13.4846 15.075C11.0096 15.9525 9.68959 17.145 9.68959 18.5475C9.68959 19.785 10.6946 20.7825 12.2921 21.5475C12.2996 21.8475 12.3296 22.26 12.3746 22.77C11.1821 23.3775 7.61209 25.4025 6.06709 28.4925C5.96209 28.71 5.96209 28.965 6.07459 29.175C6.18709 29.3925 6.39709 29.535 6.63709 29.565L9.83209 30L7.55959 33.1275C7.49577 33.2165 7.45203 33.3183 7.43141 33.4258C7.41079 33.5333 7.41378 33.6441 7.44017 33.7504C7.46656 33.8566 7.51572 33.9559 7.58425 34.0413C7.65279 34.1267 7.73906 34.1962 7.83709 34.245L22.1696 41.175C22.2746 41.2275 22.3871 41.25 22.4996 41.25C22.6121 41.25 22.7246 41.2275 22.8296 41.175L37.1621 34.245C37.3646 34.1475 37.5071 33.9675 37.5596 33.75C37.6121 33.5325 37.5671 33.3075 37.4396 33.1275L35.1671 30L38.3696 29.565C38.6096 29.535 38.8196 29.3925 38.9321 29.175ZM16.9946 27.195H20.6696C20.9621 27.195 21.2246 27.03 21.3446 26.7675L22.4996 24.3375L23.6546 26.7675C23.7821 27.03 24.0446 27.195 24.3296 27.195H28.0046C28.9046 27.195 29.7596 26.8725 30.4346 26.325C29.9321 28.11 29.0996 30 27.7196 31.3875C26.3471 32.7675 24.5921 33.465 22.4921 33.465C20.3921 33.465 18.6371 32.7675 17.2646 31.3875C15.8846 30.0075 15.0596 28.1175 14.5496 26.325C15.2396 26.8725 16.0871 27.195 16.9946 27.195ZM13.8671 22.17C15.9521 22.845 18.6071 23.235 21.3296 23.3175L20.1971 25.695H16.9946C16.5414 25.6948 16.0978 25.5648 15.7163 25.3202C15.3348 25.0756 15.0314 24.7267 14.8421 24.315L13.8671 22.17ZM23.6771 23.3175C26.3921 23.2275 29.0471 22.845 31.1321 22.17L30.1571 24.315C29.9678 24.7267 29.6644 25.0756 29.2829 25.3202C28.9014 25.5648 28.4578 25.6948 28.0046 25.695H24.8021L23.6771 23.3175ZM17.4746 5.25C18.2396 5.25 18.7346 5.5875 19.3571 6.0225C20.0996 6.5325 21.0221 7.17 22.4996 7.17C23.9771 7.17 24.8996 6.5325 25.6421 6.0225C26.2646 5.595 26.7671 5.25 27.5246 5.25C28.8971 5.25 29.8646 10.3725 30.0296 15.66V15.69L30.0521 16.7325C25.3646 18.15 20.2871 18.1425 14.9471 16.71L14.9696 15.6825V15.66C15.1346 10.3725 16.1021 5.25 17.4746 5.25ZM11.1896 18.5475C11.1896 18.0825 11.8121 17.3625 13.4471 16.6875V17.28C13.4471 17.6175 13.6721 17.91 13.9946 18C17.0096 18.855 19.9421 19.2825 22.7846 19.2825C25.6421 19.2825 28.3946 18.8475 31.0421 17.9925C31.1925 17.9435 31.3235 17.8482 31.4164 17.7202C31.5094 17.5922 31.5595 17.4382 31.5596 17.28V16.6875C33.1946 17.355 33.8171 18.0825 33.8171 18.5475C33.8171 19.89 29.4071 21.8325 22.5071 21.8325C15.5921 21.8325 11.1896 19.89 11.1896 18.5475ZM33.7196 28.6875C33.5909 28.7049 33.4688 28.7553 33.3653 28.8338C33.2619 28.9123 33.1805 29.0163 33.1291 29.1356C33.0778 29.2549 33.0582 29.3855 33.0723 29.5147C33.0864 29.6438 33.1337 29.7671 33.2096 29.8725L35.6921 33.2925L22.4996 39.6675L9.29959 33.285L11.7821 29.865C11.9396 29.655 11.9696 29.37 11.8646 29.13C11.7596 28.89 11.5346 28.7175 11.2721 28.68L7.95709 28.23C9.27709 26.3625 11.4146 25.005 12.5696 24.3525C12.9746 26.8275 13.9346 30.1575 16.1996 32.43C17.8646 34.1025 19.9796 34.95 22.4921 34.95C25.0046 34.95 27.1196 34.1025 28.7846 32.43C31.0496 30.1575 32.0021 26.8275 32.4146 24.3525C33.5771 24.9975 35.7146 26.3625 37.0346 28.23L33.7196 28.6875Z" fill="white"/>
<path d="M70.38 0.139999V1.38L68.78 1.64V13.58L70.5 13.8V15H64.34V13.8L65.86 13.6V1.52H60.3V13.6L61.98 13.8V15H55.84V13.8L57.4 13.6V1.64L55.78 1.38V0.139999H70.38ZM83.1123 9.08C83.1123 10.2 82.879 11.2267 82.4123 12.16C81.959 13.0933 81.2857 13.84 80.3923 14.4C79.5123 14.9467 78.459 15.22 77.2323 15.22C76.9657 15.22 76.6857 15.1933 76.3923 15.14C76.1123 15.1 75.8857 15.0467 75.7123 14.98L75.7723 16.64V18.46L77.6323 18.7V19.84H71.6923V18.7L72.9923 18.46V5.78L71.6923 5.42V4.04L74.9923 3.62H75.0323L75.5323 4.02V5.14C75.8657 4.72667 76.319 4.36667 76.8923 4.06C77.4657 3.75333 78.0923 3.6 78.7723 3.6C80.039 3.6 81.079 4.05333 81.8923 4.96C82.7057 5.85333 83.1123 7.22667 83.1123 9.08ZM77.7323 5.26C77.3323 5.26 76.9523 5.34667 76.5923 5.52C76.2323 5.69333 75.959 5.88667 75.7723 6.1V13.52C75.8657 13.6533 76.0523 13.7667 76.3323 13.86C76.6257 13.9533 76.9457 14 77.2923 14C78.159 14 78.8457 13.6267 79.3523 12.88C79.8723 12.12 80.1323 10.9333 80.1323 9.32C80.1323 7.96 79.9123 6.94667 79.4723 6.28C79.0323 5.6 78.4523 5.26 77.7323 5.26ZM84.7477 9.46C84.7477 8.20667 84.9943 7.14 85.4877 6.26C85.9943 5.38 86.6677 4.72 87.5077 4.28C88.3477 3.82667 89.261 3.6 90.2477 3.6C91.9277 3.6 93.221 4.12 94.1277 5.16C95.0477 6.18667 95.5077 7.58667 95.5077 9.36C95.5077 10.6267 95.2543 11.7067 94.7477 12.6C94.2543 13.48 93.5877 14.14 92.7477 14.58C91.921 15.0067 91.0077 15.22 90.0077 15.22C88.341 15.22 87.0477 14.7067 86.1277 13.68C85.2077 12.64 84.7477 11.2333 84.7477 9.46ZM90.1677 13.92C91.6743 13.92 92.4277 12.4667 92.4277 9.56C92.4277 8.04 92.2477 6.88667 91.8877 6.1C91.5277 5.3 90.941 4.9 90.1277 4.9C88.581 4.9 87.8077 6.35333 87.8077 9.26C87.8077 10.78 87.9943 11.94 88.3677 12.74C88.7543 13.5267 89.3543 13.92 90.1677 13.92ZM105.126 8.8C105.659 9.02667 106.126 9.40667 106.526 9.94C106.926 10.46 107.359 11.1333 107.826 11.96C108.106 12.4667 108.339 12.8533 108.526 13.12C108.712 13.3733 108.892 13.5333 109.066 13.6L109.926 13.78V15H107.026C106.652 15 106.319 14.7933 106.026 14.38C105.732 13.9533 105.379 13.3133 104.966 12.46C104.552 11.58 104.186 10.9133 103.866 10.46C103.546 10.0067 103.179 9.78 102.766 9.78H101.506V13.62L103.146 13.8V15H97.2858V13.8L98.6858 13.62V5.32L97.3258 5.06V3.88H102.866V5.06L101.506 5.32V8.6H103.466L105.686 5.32L104.206 5.06V3.88H109.366V5.06L107.826 5.32L105.126 8.8ZM110.523 9.5C110.523 8.35333 110.749 7.33333 111.203 6.44C111.669 5.54667 112.329 4.85333 113.183 4.36C114.049 3.85333 115.056 3.6 116.203 3.6C116.736 3.6 117.196 3.64 117.583 3.72C117.969 3.8 118.403 3.90667 118.883 4.04L119.463 4.2L119.343 7.62H117.603L117.103 5.42C117.023 5.07333 116.629 4.9 115.923 4.9C115.176 4.9 114.589 5.22667 114.163 5.88C113.749 6.53333 113.536 7.55333 113.523 8.94C113.523 10.4067 113.776 11.5333 114.283 12.32C114.789 13.0933 115.463 13.48 116.303 13.48C117.316 13.48 118.249 13.2067 119.103 12.66L119.563 13.7C119.216 14.0733 118.683 14.42 117.963 14.74C117.256 15.06 116.489 15.22 115.663 15.22C113.956 15.22 112.669 14.6933 111.803 13.64C110.949 12.5867 110.523 11.2067 110.523 9.5ZM126.874 3.88V5.06L125.334 5.32V11.36L126.454 9.88L130.334 5.74V5.32L128.994 5.06V3.88H134.534V5.06L133.174 5.32V13.62L134.594 13.8V15H128.834V13.8L130.334 13.62V7.48L129.174 9.14L125.334 13.2V13.66L126.654 13.8V15H121.114V13.8L122.514 13.62V5.32L121.154 5.06V3.88H126.874ZM141.056 9.46C141.056 8.20667 141.303 7.14 141.796 6.26C142.303 5.38 142.976 4.72 143.816 4.28C144.656 3.82667 145.57 3.6 146.556 3.6C148.236 3.6 149.53 4.12 150.436 5.16C151.356 6.18667 151.816 7.58667 151.816 9.36C151.816 10.6267 151.563 11.7067 151.056 12.6C150.563 13.48 149.896 14.14 149.056 14.58C148.23 15.0067 147.316 15.22 146.316 15.22C144.65 15.22 143.356 14.7067 142.436 13.68C141.516 12.64 141.056 11.2333 141.056 9.46ZM146.476 13.92C147.983 13.92 148.736 12.4667 148.736 9.56C148.736 8.04 148.556 6.88667 148.196 6.1C147.836 5.3 147.25 4.9 146.436 4.9C144.89 4.9 144.116 6.35333 144.116 9.26C144.116 10.78 144.303 11.94 144.676 12.74C145.063 13.5267 145.663 13.92 146.476 13.92ZM164.934 3.88L165.114 8.44H163.394L162.794 5.28L160.674 5.12V13.6L163.314 13.8V15H155.234V13.8L157.834 13.6V5.12L155.594 5.28L155.014 8.44H153.294L153.454 3.88H164.934ZM63.46 37.06C63.94 37.18 64.3933 37.4667 64.82 37.92C65.26 38.36 65.64 38.8467 65.96 39.38C66.2933 39.9 66.6933 40.5867 67.16 41.44C67.52 42.12 67.8067 42.6333 68.02 42.98C68.2467 43.3267 68.4533 43.5267 68.64 43.58L69.38 43.8V45H66.22C65.8867 45 65.56 44.7467 65.24 44.24C64.9333 43.7333 64.5267 42.94 64.02 41.86C63.46 40.6467 62.9667 39.72 62.54 39.08C62.1267 38.44 61.6867 38.12 61.22 38.12H60.28V43.58L62.06 43.82V45H55.84V43.8L57.38 43.58V31.64L55.84 31.38V30.14H61.8V31.38L60.28 31.64V37H61.74L65.32 31.64L63.82 31.38V30.14H69.1V31.38L67.44 31.64L63.46 37.06ZM70.3141 39.46C70.3141 38.2067 70.5607 37.14 71.0541 36.26C71.5607 35.38 72.2341 34.72 73.0741 34.28C73.9141 33.8267 74.8274 33.6 75.8141 33.6C77.4941 33.6 78.7874 34.12 79.6941 35.16C80.6141 36.1867 81.0741 37.5867 81.0741 39.36C81.0741 40.6267 80.8207 41.7067 80.3141 42.6C79.8207 43.48 79.1541 44.14 78.3141 44.58C77.4874 45.0067 76.5741 45.22 75.5741 45.22C73.9074 45.22 72.6141 44.7067 71.6941 43.68C70.7741 42.64 70.3141 41.2333 70.3141 39.46ZM75.7341 43.92C77.2407 43.92 77.9941 42.4667 77.9941 39.56C77.9941 38.04 77.8141 36.8867 77.4541 36.1C77.0941 35.3 76.5074 34.9 75.6941 34.9C74.1474 34.9 73.3741 36.3533 73.3741 39.26C73.3741 40.78 73.5607 41.94 73.9341 42.74C74.3207 43.5267 74.9207 43.92 75.7341 43.92ZM82.6322 39.5C82.6322 38.3533 82.8589 37.3333 83.3122 36.44C83.7789 35.5467 84.4389 34.8533 85.2922 34.36C86.1589 33.8533 87.1655 33.6 88.3122 33.6C88.8455 33.6 89.3055 33.64 89.6922 33.72C90.0789 33.8 90.5122 33.9067 90.9922 34.04L91.5722 34.2L91.4522 37.62H89.7122L89.2122 35.42C89.1322 35.0733 88.7389 34.9 88.0322 34.9C87.2855 34.9 86.6989 35.2267 86.2722 35.88C85.8589 36.5333 85.6455 37.5533 85.6322 38.94C85.6322 40.4067 85.8855 41.5333 86.3922 42.32C86.8989 43.0933 87.5722 43.48 88.4122 43.48C89.4255 43.48 90.3589 43.2067 91.2122 42.66L91.6722 43.7C91.3255 44.0733 90.7922 44.42 90.0722 44.74C89.3655 45.06 88.5989 45.22 87.7722 45.22C86.0655 45.22 84.7789 44.6933 83.9122 43.64C83.0589 42.5867 82.6322 41.2067 82.6322 39.5ZM104.563 33.88L104.743 38.44H103.023L102.423 35.28L100.303 35.12V43.6L102.943 43.8V45H94.8633V43.8L97.4633 43.6V35.12L95.2233 35.28L94.6433 38.44H92.9233L93.0833 33.88H104.563ZM111.972 33.88V35.06L110.432 35.32V41.36L111.552 39.88L115.432 35.74V35.32L114.092 35.06V33.88H119.632V35.06L118.272 35.32V43.62L119.692 43.8V45H113.932V43.8L115.432 43.62V37.48L114.272 39.14L110.432 43.2V43.66L111.752 43.8V45H106.212V43.8L107.612 43.62V35.32L106.252 35.06V33.88H111.972ZM127.068 33.88V35.06L125.608 35.32V38.58H130.328V35.32L128.868 35.06V33.88H134.548V35.06L133.168 35.32V43.62L134.568 43.8V45H128.828V43.8L130.328 43.62V39.9H125.608V43.62L127.088 43.8V45H121.368V43.8L122.788 43.62V35.32L121.368 35.06V33.88H127.068ZM136.129 41.88C136.129 40.6667 136.736 39.7533 137.949 39.14C139.176 38.5267 140.756 38.2133 142.689 38.2V37.74C142.689 37.1933 142.629 36.7667 142.509 36.46C142.403 36.1533 142.196 35.9267 141.889 35.78C141.596 35.62 141.163 35.54 140.589 35.54C139.936 35.54 139.349 35.6267 138.829 35.8C138.309 35.96 137.769 36.1733 137.209 36.44L136.589 35.16C136.789 34.9867 137.123 34.78 137.589 34.54C138.069 34.3 138.636 34.0933 139.289 33.92C139.943 33.7333 140.616 33.64 141.309 33.64C142.336 33.64 143.136 33.7733 143.709 34.04C144.296 34.3067 144.716 34.7333 144.969 35.32C145.223 35.9067 145.349 36.6933 145.349 37.68V43.8H146.429V44.92C146.163 44.9867 145.783 45.0533 145.289 45.12C144.796 45.1867 144.363 45.22 143.989 45.22C143.536 45.22 143.229 45.1533 143.069 45.02C142.923 44.8867 142.849 44.6133 142.849 44.2V43.66C142.489 44.06 142.023 44.42 141.449 44.74C140.876 45.06 140.229 45.22 139.509 45.22C138.896 45.22 138.329 45.0933 137.809 44.84C137.303 44.5733 136.896 44.1933 136.589 43.7C136.283 43.1933 136.129 42.5867 136.129 41.88ZM140.789 43.56C141.069 43.56 141.389 43.48 141.749 43.32C142.109 43.1467 142.423 42.94 142.689 42.7V39.42C141.489 39.42 140.589 39.6267 139.989 40.04C139.403 40.44 139.109 40.96 139.109 41.6C139.109 42.24 139.256 42.7267 139.549 43.06C139.856 43.3933 140.269 43.56 140.789 43.56ZM149.557 45.18C149.144 45.18 148.784 45.04 148.477 44.76C148.171 44.4667 148.017 44.1 148.017 43.66C148.017 43.1667 148.191 42.7667 148.537 42.46C148.897 42.14 149.331 41.98 149.837 41.98C150.317 41.98 150.697 42.1333 150.977 42.44C151.257 42.7333 151.397 43.0867 151.397 43.5C151.397 44.02 151.224 44.4333 150.877 44.74C150.544 45.0333 150.104 45.18 149.557 45.18ZM155.017 31.64L153.517 31.38V30.14H156.537C156.817 30.14 157.25 30.1267 157.837 30.1C158.61 30.0467 159.31 30.02 159.937 30.02C161.323 30.02 162.417 30.1933 163.217 30.54C164.03 30.8733 164.603 31.36 164.937 32C165.283 32.6267 165.457 33.4267 165.457 34.4C165.457 36.08 164.93 37.3867 163.877 38.32C162.837 39.2533 161.39 39.72 159.537 39.72C158.803 39.72 158.277 39.7 157.957 39.66V43.6L160.637 43.8V45H153.437V43.8L155.017 43.6V31.64ZM157.937 38.38C158.243 38.4467 158.763 38.48 159.497 38.48C160.39 38.48 161.103 38.1733 161.637 37.56C162.183 36.9333 162.457 35.9 162.457 34.46C162.457 33.34 162.21 32.5267 161.717 32.02C161.237 31.5 160.497 31.24 159.497 31.24C159.123 31.24 158.737 31.2667 158.337 31.32C158.15 31.3467 158.017 31.36 157.937 31.36V38.38ZM175.399 32.48C177.159 32.4933 178.519 32.7267 179.479 33.18C180.453 33.6333 181.113 34.22 181.459 34.94C181.806 35.66 181.979 36.5133 181.979 37.5C181.979 38.4467 181.726 39.2933 181.219 40.04C180.726 40.7867 179.979 41.38 178.979 41.82C177.993 42.26 176.799 42.4933 175.399 42.52V43.98L177.179 44.2V45.42H170.819V44.18L172.599 43.96V42.52C170.066 42.5067 168.333 42.04 167.399 41.12C166.479 40.2 166.019 38.9733 166.019 37.44C166.019 35.9733 166.566 34.8 167.659 33.92C168.753 33.04 170.399 32.5667 172.599 32.5V31.2L170.799 30.92V29.72H177.159V30.92L175.399 31.2V32.48ZM172.599 33.48C171.239 33.56 170.319 33.9267 169.839 34.58C169.359 35.2333 169.119 36.1467 169.119 37.32C169.119 38.4533 169.359 39.4 169.839 40.16C170.333 40.92 171.253 41.3667 172.599 41.5V33.48ZM175.399 41.54C176.746 41.4333 177.659 41.04 178.139 40.36C178.633 39.68 178.879 38.7333 178.879 37.52C178.879 36.4133 178.639 35.5067 178.159 34.8C177.679 34.08 176.759 33.6533 175.399 33.52V41.54Z" fill="white"/>
</svg>
