<svg width="15" height="16" viewBox="0 0 15 16" fill="none" xmlns="http://www.w3.org/2000/svg">
<g clip-path="url(#clip0_321_24244)">
<path d="M14.4672 2.56921C14.1449 2.53982 13.8599 2.77728 13.8305 3.09954L13.7529 3.95117C12.4357 1.88264 10.1493 0.5 7.49997 0.5C4.64994 0.5 2.13829 2.12662 0.891472 4.56799C0.744284 4.85618 0.858601 5.20912 1.14679 5.35631C1.43505 5.5035 1.78793 5.38921 1.93511 5.10099C2.9903 3.03485 5.10925 1.67188 7.49997 1.67188C9.67898 1.67188 11.6454 2.80657 12.772 4.58422L11.9366 3.98753C11.6732 3.79947 11.3073 3.86047 11.1192 4.12379C10.9312 4.38714 10.9922 4.75306 11.2555 4.94114L13.7889 6.75055C14.1602 7.01524 14.6724 6.77293 14.713 6.32694L14.9975 3.20595C15.0269 2.88365 14.7895 2.59859 14.4672 2.56921ZM13.8531 10.6437C13.5649 10.4965 13.212 10.6108 13.0648 10.899C12.0096 12.9651 9.89068 14.3281 7.49997 14.3281C5.32095 14.3281 3.35449 13.1934 2.22791 11.4158L3.06337 12.0125C3.32672 12.2005 3.69263 12.1395 3.88072 11.8762C4.06878 11.6129 4.00778 11.2469 3.74446 11.0589L1.21101 9.24945C0.844245 8.98742 0.327976 9.22247 0.28696 9.67306L0.00245823 12.7941C-0.0269265 13.1163 0.210525 13.4014 0.532761 13.4308C0.855437 13.4601 1.14011 13.2224 1.16947 12.9004L1.24711 12.0488C2.56424 14.1174 4.85068 15.5 7.49997 15.5C10.35 15.5 12.8616 13.8734 14.1085 11.432C14.2557 11.1438 14.1413 10.7909 13.8531 10.6437Z" fill="white"/>
</g>
<defs>
<clipPath id="clip0_321_24244">
<rect width="15" height="15" fill="white" transform="translate(0 0.5)"/>
</clipPath>
</defs>
</svg>
