<svg width="25" height="25" viewBox="0 0 25 25" fill="none" xmlns="http://www.w3.org/2000/svg">
<rect width="25" height="25" rx="5" fill="#3A516E"/>
<path d="M5.30846 12.4211L8.52849 13.4497L16.174 9.05309C16.285 8.9896 16.3986 9.13117 16.3031 9.21394L10.515 14.2252L10.3 17.0307C10.2965 17.0777 10.3082 17.1246 10.3337 17.1651C10.3592 17.2057 10.3972 17.238 10.4426 17.2578C10.4881 17.2776 10.5388 17.2839 10.5882 17.276C10.6376 17.268 10.6832 17.2461 10.719 17.2132L12.501 15.5647L15.759 17.8843C16.11 18.1345 16.6186 17.9582 16.7131 17.5537L18.9816 7.86506C19.1111 7.31243 18.5351 6.84587 17.9736 7.04811L5.29246 11.6159C4.89446 11.7593 4.90546 12.2922 5.30846 12.4211Z" fill="white"/>
</svg>
