<svg width="12" height="12" viewBox="0 0 12 12" fill="none" xmlns="http://www.w3.org/2000/svg">
<g clip-path="url(#clip0_407_112201)">
<path d="M11.7617 5.65464C11.2909 4.66277 10.7306 3.85384 10.0809 3.22785L9.39945 3.90928C9.95512 4.44031 10.4391 5.135 10.8577 6.00018C9.74338 8.30643 8.16168 9.40196 6.00008 9.40196C5.35124 9.40196 4.7536 9.30205 4.20718 9.10223L3.46883 9.84058C4.22776 10.191 5.07151 10.3662 6.00008 10.3662C8.57419 10.3662 10.4947 9.02562 11.7617 6.34437C11.8126 6.23654 11.839 6.11876 11.839 5.99951C11.839 5.88025 11.8126 5.76247 11.7617 5.65464ZM10.9103 1.36035L10.3394 0.788748C10.3294 0.778786 10.3176 0.770883 10.3046 0.765491C10.2916 0.7601 10.2776 0.757324 10.2636 0.757324C10.2495 0.757324 10.2355 0.7601 10.2225 0.765491C10.2095 0.770883 10.1977 0.778786 10.1878 0.788748L8.72298 2.25285C7.91539 1.84035 7.00776 1.6341 6.00008 1.6341C3.42597 1.6341 1.50543 2.97473 0.23847 5.65598C0.187544 5.76382 0.161133 5.88159 0.161133 6.00085C0.161133 6.1201 0.187544 6.23788 0.23847 6.34571C0.744631 7.41178 1.35401 8.26629 2.0666 8.90924L0.649363 10.3261C0.629285 10.3462 0.618007 10.3734 0.618007 10.4018C0.618007 10.4302 0.629285 10.4575 0.649363 10.4775L1.2211 11.0493C1.2412 11.0694 1.26844 11.0806 1.29684 11.0806C1.32524 11.0806 1.35249 11.0694 1.37258 11.0493L10.9103 1.51196C10.9203 1.50201 10.9282 1.49019 10.9336 1.47719C10.9389 1.46418 10.9417 1.45024 10.9417 1.43616C10.9417 1.42208 10.9389 1.40814 10.9336 1.39513C10.9282 1.38212 10.9203 1.37031 10.9103 1.36035ZM1.14249 6.00018C2.25811 3.69393 3.83981 2.59839 6.00008 2.59839C6.73052 2.59839 7.39468 2.72375 7.99722 2.97861L7.0557 3.92013C6.60981 3.68223 6.09926 3.59393 5.59937 3.66827C5.09948 3.74262 4.63672 3.97566 4.27935 4.33302C3.92199 4.69039 3.68895 5.15315 3.6146 5.65304C3.54026 6.15293 3.62856 6.66348 3.86646 7.10937L2.74923 8.2266C2.13088 7.68085 1.59785 6.94143 1.14249 6.00018ZM4.44651 6.00018C4.44674 5.76401 4.50268 5.53123 4.60978 5.32075C4.71688 5.11027 4.87212 4.92802 5.06289 4.78881C5.25366 4.64959 5.47457 4.55734 5.70769 4.51955C5.94081 4.48175 6.17956 4.49948 6.40454 4.57129L4.51762 6.45821C4.47033 6.31014 4.44634 6.15562 4.44651 6.00018Z" fill="black"/>
<path d="M5.94649 7.49996C5.90015 7.49996 5.85449 7.49782 5.80922 7.49367L5.10181 8.20108C5.52728 8.36402 5.99085 8.40023 6.43647 8.30533C6.88209 8.21043 7.29068 7.98848 7.61285 7.66631C7.93501 7.34415 8.15696 6.93556 8.25186 6.48994C8.34677 6.04432 8.31055 5.58075 8.14761 5.15527L7.4402 5.86268C7.44435 5.90795 7.44649 5.95362 7.44649 5.99996C7.4466 6.19697 7.40787 6.39208 7.33253 6.57411C7.25718 6.75615 7.1467 6.92155 7.00739 7.06086C6.86808 7.20017 6.70268 7.31065 6.52064 7.386C6.33861 7.46134 6.14351 7.50007 5.94649 7.49996Z" fill="black"/>
</g>
<defs>
<clipPath id="clip0_407_112201">
<rect width="12" height="12" fill="white"/>
</clipPath>
</defs>
</svg>
