<svg width="25" height="25" viewBox="0 0 25 25" fill="none" xmlns="http://www.w3.org/2000/svg">
<rect width="25" height="25" rx="5" fill="#3A516E"/>
<path d="M12.615 18.4374C15.3636 18.4374 14.3836 16.6973 14.5957 16.197C14.5926 15.8233 14.5894 15.4639 14.6021 15.2454C14.7762 15.2945 15.1871 15.5027 16.0357 16.3276C17.3459 17.6497 17.6808 18.4374 18.7392 18.4374H20.6875C21.3049 18.4374 21.6263 18.1816 21.7871 17.9671C21.9422 17.7597 22.0942 17.3955 21.928 16.8287C21.4934 15.4639 18.9585 13.1072 18.801 12.8586C18.8265 12.8115 18.8537 12.7653 18.8825 12.7201H18.8809C19.3812 12.0591 21.2907 9.19804 21.5717 8.05332C21.5727 8.05135 21.5732 8.04919 21.5733 8.04699C21.7253 7.5245 21.586 7.18568 21.4419 6.9941C21.225 6.70752 20.8798 6.56265 20.4135 6.56265H18.4653C17.813 6.56265 17.3182 6.89119 17.068 7.49046C16.6493 8.55523 15.4729 10.7449 14.591 11.5199C14.5713 10.6669 14.5732 9.8135 14.5965 8.96055C14.625 7.74537 14.7169 6.56265 13.4558 6.56265H10.3937C9.60361 6.56265 8.84759 7.42555 9.66615 8.44994C10.3818 9.34766 9.92344 9.84799 10.0778 12.3385C9.47616 11.6933 8.40585 9.9509 7.64904 7.724C7.43688 7.12156 7.11547 6.56344 6.21061 6.56344H4.26237C3.47231 6.56344 3.00049 6.9941 3.00049 7.71529C3.00049 9.335 6.58586 18.4374 12.615 18.4374ZM6.21061 7.75091C6.3824 7.75091 6.39982 7.75091 6.52727 8.1127C7.3023 10.395 9.04075 13.7722 10.3106 13.7722C11.2645 13.7722 11.2645 12.7945 11.2645 12.4264L11.2637 9.4957C11.2114 8.52594 10.8584 8.04303 10.6264 7.75012L13.4035 7.75329C13.4051 7.76675 13.3877 10.9951 13.4114 11.7772C13.4114 12.8879 14.2933 13.5244 15.67 12.1311C17.1227 10.4916 18.1273 8.04066 18.1676 7.94091C18.227 7.79841 18.2785 7.75012 18.4653 7.75012H20.4215L20.4199 7.75725C20.2418 8.58848 18.4835 11.2373 17.8953 12.0598L17.8684 12.0994C17.6095 12.5222 17.399 12.9892 17.904 13.6463C17.9499 13.7017 18.0703 13.8316 18.2444 14.012C18.7859 14.5709 20.6431 16.482 20.8078 17.242C20.6985 17.2594 20.5798 17.2467 18.7392 17.2507C18.3473 17.2507 18.041 16.6649 16.8717 15.4853C15.8204 14.4625 15.138 14.0445 14.5166 14.0445C13.3101 14.0445 13.398 15.0238 13.4091 16.2081C13.413 17.4921 13.4051 17.086 13.4138 17.1668C13.3434 17.1945 13.1415 17.2499 12.615 17.2499C7.59204 17.2499 4.32095 9.27721 4.19508 7.75329C4.23862 7.74933 4.8379 7.75171 6.21061 7.75091Z" fill="white"/>
</svg>
