<svg width="18" height="18" viewBox="0 0 18 18" fill="none" xmlns="http://www.w3.org/2000/svg">
<path d="M15.75 8.4375H11.8125C10.5784 8.4375 9.5625 9.45337 9.5625 10.6875C9.5625 11.9216 10.5784 12.9375 11.8125 12.9375H14.0625V14.625C14.0625 14.9338 13.8088 15.1875 13.5 15.1875H4.5C3.57412 15.1875 2.8125 14.4259 2.8125 13.5V5.0625C2.8125 4.13662 3.57412 3.375 4.5 3.375H5.625C5.93381 3.375 6.1875 3.12131 6.1875 2.8125C6.1875 2.50369 5.93381 2.25 5.625 2.25H4.5C2.95706 2.25 1.6875 3.51956 1.6875 5.0625V13.5C1.6875 15.0429 2.95706 16.3125 4.5 16.3125H13.5C14.4259 16.3125 15.1875 15.5509 15.1875 14.625V12.9375H15.75C16.0588 12.9375 16.3125 12.6838 16.3125 12.375V9C16.3125 8.69119 16.0588 8.4375 15.75 8.4375ZM15.1875 11.8125H11.8125C11.1954 11.8125 10.6875 11.3046 10.6875 10.6875C10.6875 10.0704 11.1954 9.5625 11.8125 9.5625H15.1875V11.8125Z" fill="#C0C0C0"/>
<path d="M4.29802 4.53927C3.67027 4.8132 3.87783 5.62489 4.50052 5.62489H13.5005C13.8093 5.62489 14.063 5.87858 14.063 6.18739V6.74989C14.063 7.0587 14.3167 7.31239 14.6255 7.31239C14.9343 7.31239 15.188 7.0587 15.188 6.74989V6.18739C15.188 5.73984 15.0102 5.31062 14.6938 4.99415C14.3773 4.67768 13.9481 4.49989 13.5005 4.49989H13.3205L12.3361 2.04177C12.2804 1.90479 12.1733 1.79509 12.0376 1.73621C11.902 1.67732 11.7486 1.67393 11.6105 1.72677L4.29802 4.53927ZM12.1055 4.49989H7.53239L11.498 2.97552L12.1055 4.49989Z" fill="#C0C0C0"/>
</svg>
