<svg width="30" height="30" viewBox="0 0 30 30" fill="none" xmlns="http://www.w3.org/2000/svg">
<path d="M21.8401 10.2676L21.4012 12.4637C21.2322 13.3086 20.3613 14.0217 19.4994 14.0217H17.4996C17.1857 14.0217 16.8557 13.7511 16.7937 13.4435L16.5028 11.9884C16.4766 11.8586 16.4 11.7445 16.2896 11.6711C16.1793 11.5978 16.0443 11.5713 15.9143 11.5974C15.7844 11.6235 15.6701 11.7 15.5967 11.8103C15.5233 11.9205 15.4968 12.0553 15.5229 12.1851L15.8138 13.6402C15.9688 14.4142 16.7097 15.0204 17.5006 15.0204H19.5004C20.8523 15.0204 22.1171 13.9838 22.3831 12.6615L22.862 10.2686L21.8401 10.2676ZM13.8411 10.2676L13.2051 13.4435C13.1431 13.7521 12.8132 14.0217 12.4992 14.0217H10.4994C9.63755 14.0217 8.76665 13.3086 8.59767 12.4637L8.49068 11.9314C8.47775 11.8671 8.45225 11.8059 8.41566 11.7515C8.37906 11.697 8.33208 11.6502 8.27739 11.6139C8.2227 11.5775 8.16138 11.5523 8.09693 11.5396C8.03248 11.5269 7.96615 11.527 7.90175 11.5399C7.83734 11.5529 7.77611 11.5783 7.72156 11.6149C7.667 11.6514 7.62019 11.6984 7.5838 11.753C7.5474 11.8076 7.52213 11.8689 7.50943 11.9332C7.49674 11.9976 7.49686 12.0638 7.50979 12.1282V12.1292L7.61678 12.6605C7.88175 13.9828 9.1476 15.0194 10.4984 15.0194H12.4982C13.2891 15.0194 14.029 14.4142 14.185 13.6392L14.8599 10.2666H13.8411V10.2676ZM15.9988 27.8018C15.8873 27.8019 15.779 27.7647 15.6911 27.6963C15.6031 27.6278 15.5406 27.5319 15.5135 27.4239C15.4864 27.3159 15.4962 27.2019 15.5414 27.1001C15.5866 26.9983 15.6645 26.9145 15.7628 26.862L25.2768 21.7706L23.5829 19.2319C23.5113 19.1246 23.4839 18.9938 23.5067 18.8669C23.5294 18.7399 23.6005 18.6266 23.7049 18.5508L28.5544 15.0284C27.5115 14.5131 25.4497 13.6162 23.486 13.4804C23.3538 13.4707 23.2309 13.4092 23.144 13.3093C23.057 13.2094 23.0132 13.0792 23.022 12.9471C23.0264 12.8816 23.0438 12.8176 23.0731 12.7588C23.1023 12.7001 23.1429 12.6476 23.1926 12.6046C23.2422 12.5615 23.2998 12.5287 23.3622 12.5079C23.4245 12.4872 23.4904 12.479 23.556 12.4837C26.5586 12.6924 29.6203 14.4532 29.7492 14.5291C29.8214 14.5705 29.8821 14.6293 29.9257 14.7002C29.9692 14.7711 29.9943 14.8517 29.9986 14.9348C30.0028 15.0179 29.9862 15.1007 29.9501 15.1756C29.9141 15.2506 29.8598 15.3154 29.7922 15.364L24.6818 19.0771L26.4146 21.6748C26.4537 21.7325 26.4802 21.7978 26.4923 21.8664C26.5044 21.935 26.5019 22.0054 26.4849 22.073C26.4679 22.1406 26.4368 22.2038 26.3937 22.2586C26.3506 22.3133 26.2964 22.3584 26.2346 22.3908L16.2358 27.7409C16.1633 27.781 16.0817 27.8019 15.9988 27.8018Z" fill="white"/>
<path d="M16.5366 25.8164C16.4368 25.8162 16.3395 25.7863 16.257 25.7304C16.1744 25.6745 16.1105 25.5953 16.0734 25.5028C16.0363 25.4104 16.0278 25.309 16.0488 25.2116C16.0699 25.1143 16.1196 25.0255 16.1916 24.9566C16.9405 24.2415 17.7634 23.4405 18.6463 22.5597C20.4071 20.801 21.469 17.664 21.725 16.0991C21.7326 16.032 21.7539 15.9671 21.7874 15.9084C21.8209 15.8498 21.866 15.7985 21.9199 15.7577C21.9738 15.7169 22.0355 15.6875 22.1011 15.6712C22.1667 15.6549 22.235 15.6521 22.3017 15.6629C22.3685 15.6738 22.4324 15.698 22.4895 15.7342C22.5466 15.7704 22.5957 15.8177 22.634 15.8735C22.6722 15.9292 22.6988 15.992 22.712 16.0583C22.7252 16.1245 22.7248 16.1928 22.7108 16.2589C22.5129 17.4733 21.523 21.0986 19.3532 23.2658C18.4643 24.1536 17.6354 24.9596 16.8825 25.6786C16.7892 25.7672 16.6653 25.8165 16.5366 25.8164ZM17.9994 30C17.917 29.9997 17.836 29.9791 17.7634 29.9401L3.76502 22.4498C3.70327 22.4174 3.64907 22.3723 3.60595 22.3176C3.56282 22.2628 3.53176 22.1995 3.51477 22.132C3.49778 22.0644 3.49526 21.994 3.50737 21.9254C3.51948 21.8568 3.54595 21.7915 3.58504 21.7337L5.31884 19.1361L0.207429 15.423C0.139807 15.3744 0.085446 15.3098 0.0493182 15.2348C0.0131904 15.1599 -0.00355041 15.0771 0.000627291 14.9941C0.00480499 14.911 0.0297678 14.8303 0.0732321 14.7594C0.116696 14.6885 0.177275 14.6296 0.249424 14.588C0.37841 14.5121 3.44006 12.7514 6.44371 12.5427C6.57562 12.5352 6.70524 12.5795 6.80497 12.666C6.9047 12.7526 6.96666 12.8746 6.97765 13.0061C6.98672 13.1382 6.94299 13.2686 6.85602 13.3685C6.76905 13.4685 6.64596 13.5299 6.5137 13.5394C4.55093 13.6752 2.48917 14.5721 1.44529 15.0874L6.29473 18.6098C6.3992 18.6856 6.47024 18.7989 6.49298 18.9258C6.51571 19.0528 6.48839 19.1836 6.41672 19.2909L4.72191 21.8296L14.5558 27.0918C13.23 25.8594 11.9266 24.6031 10.6462 23.3237C8.50848 21.1885 7.49759 17.5452 7.28862 16.3208C7.26634 16.1902 7.29691 16.0561 7.37361 15.9481C7.4503 15.84 7.56683 15.7668 7.69757 15.7445C7.8283 15.7223 7.96254 15.7528 8.07073 15.8294C8.17893 15.906 8.25223 16.0224 8.2745 16.153C8.45648 17.2136 9.41037 20.6761 11.3541 22.6176C15.4587 26.7173 18.2924 29.0942 18.3214 29.1181C18.416 29.1978 18.4778 29.3095 18.4949 29.4319C18.5121 29.5543 18.4834 29.6787 18.4143 29.7813C18.3681 29.8486 18.3062 29.9037 18.2339 29.9418C18.1616 29.9799 18.0811 29.9999 17.9994 30ZM21.225 5.28516C21.281 5.62172 21.331 5.95528 21.372 6.28386C26.2044 6.69332 28.8341 7.51026 28.9991 8.0156C28.7721 8.73866 23.8987 10.027 14.9997 10.027C6.09975 10.027 1.22731 8.73866 1.00034 8.04257C1.07233 7.81387 2.24819 7.04087 6.5587 6.50357C6.6903 6.48687 6.80989 6.41871 6.89124 6.31405C6.9726 6.20939 7.00907 6.07678 6.99265 5.9453C6.97494 5.81457 6.90655 5.69601 6.80221 5.61514C6.69786 5.53426 6.5659 5.49753 6.43471 5.51286C0.00145276 6.31482 0.00145284 7.60514 0.00145284 8.02958C0.00145284 10.9917 14.3878 11.0257 14.9997 11.0257C15.6117 11.0257 29.998 10.9917 29.998 8.02958C29.998 6.34578 25.3495 5.60874 21.225 5.28516Z" fill="white"/>
<path d="M14.9992 9.02833C9.97677 9.02833 8.40595 8.52398 8.34196 8.50301C8.24245 8.46991 8.15588 8.40638 8.09451 8.32143C8.03314 8.23647 8.00008 8.13439 8 8.02963C8 6.06219 8.60693 3.31576 9.11687 1.35831C9.39184 0.303684 10.5467 -0.27756 11.5776 0.131907L14.9992 1.50013L18.4208 0.132906C19.4487 -0.278558 20.6066 0.303684 20.8815 1.36031C21.2985 2.95823 21.9984 5.95133 21.9984 8.02963C21.9983 8.13439 21.9652 8.23647 21.9039 8.32143C21.8425 8.40638 21.7559 8.46991 21.6564 8.50301C21.5924 8.52398 20.0216 9.02833 14.9992 9.02833ZM9.00788 7.63714C9.68981 7.77296 11.4506 8.02963 14.9992 8.02963C18.5458 8.02963 20.3066 7.77296 20.9905 7.63614C20.9115 5.69367 20.2926 3.06209 19.9136 1.60998C19.7846 1.11762 19.2767 0.865952 18.7918 1.0597L15.1852 2.49983C15.0664 2.54871 14.933 2.54871 14.8142 2.49983L11.2076 1.0597C10.7227 0.865952 10.2137 1.11962 10.0858 1.60998C9.7058 3.06509 9.08688 5.69866 9.00788 7.63714Z" fill="white"/>
</svg>
