<svg width="18" height="18" viewBox="0 0 18 18" fill="none" xmlns="http://www.w3.org/2000/svg">
<path d="M6.03949 6.28523L5.34596 6.68562C5.29184 6.71684 5.2469 6.76178 5.21568 6.81591M10.3918 5.38111L9.17662 4.67954C9.12251 4.64829 9.06112 4.63184 8.99863 4.63184C8.93614 4.63184 8.87475 4.64829 8.82063 4.67954L7.15771 5.63962M12.7816 6.81595C12.7504 6.76183 12.7054 6.71689 12.6513 6.68566L11.4838 6.01161M12.8293 8.56374V6.99394C12.8293 6.93145 12.8128 6.87005 12.7815 6.81595L8.99863 9.00003M8.99863 13.3682C9.06008 13.3682 9.12157 13.3523 9.17662 13.3205L12.6513 11.3144C12.7054 11.2832 12.7503 11.2382 12.7816 11.1841C12.8128 11.13 12.8293 11.0686 12.8293 11.0061V9.79421M5.21568 6.81595C5.18442 6.87006 5.16796 6.93145 5.16797 6.99394V11.0061C5.16797 11.1333 5.23582 11.2508 5.34596 11.3144L8.8206 13.3205C8.87471 13.3517 8.9361 13.3682 8.99859 13.3682V9.00003L5.21568 6.81595Z" stroke="white" stroke-width="0.5" stroke-miterlimit="10" stroke-linecap="round" stroke-linejoin="round"/>
<path d="M7.65452 8.22296L11.4851 6.01135L10.3931 5.38086L6.5625 7.5925M6.5625 7.5925V9.33334L7.65452 9.96379V8.22296" stroke="white" stroke-width="0.5" stroke-miterlimit="10" stroke-linecap="round" stroke-linejoin="round"/>
<path d="M9.00023 2.44772C9.60333 2.44772 10.0923 1.9588 10.0923 1.3557C10.0923 0.752587 9.60333 0.263672 9.00023 0.263672C8.39712 0.263672 7.9082 0.752587 7.9082 1.3557C7.9082 1.9588 8.39712 2.44772 9.00023 2.44772Z" stroke="white" stroke-width="0.5" stroke-miterlimit="10" stroke-linecap="round" stroke-linejoin="round"/>
<path d="M8.99914 4.63135V2.44727M8.99914 2.44727L8.45312 2.99328M8.99914 2.44727L9.54515 2.99328" stroke="white" stroke-width="0.5" stroke-miterlimit="10" stroke-linecap="round" stroke-linejoin="round"/>
<path d="M2.37913 6.26998C2.98224 6.26998 3.47116 5.78107 3.47116 5.17796C3.47116 4.57485 2.98224 4.08594 2.37913 4.08594C1.77602 4.08594 1.28711 4.57485 1.28711 5.17796C1.28711 5.78107 1.77602 6.26998 2.37913 6.26998Z" stroke="white" stroke-width="0.5" stroke-miterlimit="10" stroke-linecap="round" stroke-linejoin="round"/>
<path d="M5.21655 6.8163L3.32511 5.72424M3.32511 5.72424L3.52494 6.47015M3.32511 5.72424L4.07099 5.52441M1.47839 13.4397C1.46257 13.4166 1.44763 13.3928 1.4336 13.3685C1.13203 12.8462 1.31101 12.1784 1.83333 11.8768C2.35564 11.5752 3.02351 11.7542 3.32508 12.2765M3.32508 12.2765C3.62665 12.7988 3.44767 13.4667 2.92535 13.7683C2.81562 13.8318 2.69565 13.8757 2.57083 13.898M3.32508 12.2765L5.21655 11.1845M3.32508 12.2765L4.07099 12.4764M3.32508 12.2765L3.52494 11.5306" stroke="white" stroke-width="0.5" stroke-miterlimit="10" stroke-linecap="round" stroke-linejoin="round"/>
<path d="M9.00023 17.7368C9.60333 17.7368 10.0923 17.2479 10.0923 16.6448C10.0923 16.0417 9.60333 15.5527 9.00023 15.5527C8.39712 15.5527 7.9082 16.0417 7.9082 16.6448C7.9082 17.2479 8.39712 17.7368 9.00023 17.7368Z" stroke="white" stroke-width="0.5" stroke-miterlimit="10" stroke-linecap="round" stroke-linejoin="round"/>
<path d="M8.99914 13.3682V15.5522M8.99914 15.5522L9.54515 15.0062M8.99914 15.5522L8.45312 15.0062" stroke="white" stroke-width="0.5" stroke-miterlimit="10" stroke-linecap="round" stroke-linejoin="round"/>
<path d="M15.6194 13.9145C16.2225 13.9145 16.7114 13.4256 16.7114 12.8225C16.7114 12.2194 16.2225 11.7305 15.6194 11.7305C15.0163 11.7305 14.5273 12.2194 14.5273 12.8225C14.5273 13.4256 15.0163 13.9145 15.6194 13.9145Z" stroke="white" stroke-width="0.5" stroke-miterlimit="10" stroke-linecap="round" stroke-linejoin="round"/>
<path d="M12.7832 11.1836L14.6746 12.2756M14.6746 12.2756L14.4748 11.5297M14.6746 12.2756L13.9288 12.4755" stroke="white" stroke-width="0.5" stroke-miterlimit="10" stroke-linecap="round" stroke-linejoin="round"/>
<path d="M15.6194 6.26998C16.2225 6.26998 16.7114 5.78107 16.7114 5.17796C16.7114 4.57485 16.2225 4.08594 15.6194 4.08594C15.0163 4.08594 14.5273 4.57485 14.5273 5.17796C14.5273 5.78107 15.0163 6.26998 15.6194 6.26998Z" stroke="white" stroke-width="0.5" stroke-miterlimit="10" stroke-linecap="round" stroke-linejoin="round"/>
<path d="M12.7832 6.81532L14.6746 5.72327M14.6746 5.72327L13.9288 5.52344M14.6746 5.72327L14.4748 6.46918" stroke="white" stroke-width="0.5" stroke-miterlimit="10" stroke-linecap="round" stroke-linejoin="round"/>
</svg>
