<svg width="22" height="21" viewBox="0 0 22 21" fill="none" xmlns="http://www.w3.org/2000/svg">
<g clip-path="url(#clip0_689_14833)">
<path d="M18.7717 2.80957H3.21268C1.98809 2.80957 0.992188 3.91477 0.992188 5.27357V5.60957H20.9922V5.27357C20.9922 3.91477 19.9963 2.80957 18.7717 2.80957ZM3.7176 5.02957C3.5798 5.02957 3.44509 4.98969 3.33052 4.91497C3.21594 4.84025 3.12664 4.73405 3.07391 4.60979C3.02118 4.48554 3.00738 4.34882 3.03426 4.21691C3.06115 4.085 3.1275 3.96384 3.22494 3.86874C3.32238 3.77364 3.44652 3.70887 3.58167 3.68264C3.71682 3.6564 3.85691 3.66986 3.98422 3.72133C4.11153 3.7728 4.22034 3.85996 4.2969 3.97178C4.37346 4.08361 4.41432 4.21508 4.41432 4.34957C4.41432 4.52992 4.34091 4.70288 4.21025 4.8304C4.07959 4.95793 3.90238 5.02957 3.7176 5.02957ZM5.76678 5.02957C5.62898 5.02957 5.49428 4.98969 5.3797 4.91497C5.26512 4.84025 5.17582 4.73405 5.12309 4.60979C5.07036 4.48554 5.05656 4.34882 5.08344 4.21691C5.11033 4.085 5.17668 3.96384 5.27412 3.86874C5.37156 3.77364 5.4957 3.70887 5.63085 3.68264C5.766 3.6564 5.90609 3.66986 6.0334 3.72133C6.16071 3.7728 6.26952 3.85996 6.34608 3.97178C6.42264 4.08361 6.4635 4.21508 6.4635 4.34957C6.4635 4.52992 6.39009 4.70288 6.25943 4.8304C6.12877 4.95793 5.95156 5.02957 5.76678 5.02957ZM7.81596 5.02957C7.67816 5.02957 7.54346 4.98969 7.42888 4.91497C7.31431 4.84025 7.225 4.73405 7.17227 4.60979C7.11954 4.48554 7.10574 4.34882 7.13262 4.21691C7.15951 4.085 7.22586 3.96384 7.3233 3.86874C7.42074 3.77364 7.54488 3.70887 7.68003 3.68264C7.81519 3.6564 7.95527 3.66986 8.08258 3.72133C8.20989 3.7728 8.3187 3.85996 8.39526 3.97178C8.47182 4.08361 8.51268 4.21508 8.51268 4.34957C8.51268 4.52992 8.43927 4.70288 8.30861 4.8304C8.17795 4.95793 8.00074 5.02957 7.81596 5.02957ZM18.3692 4.92957H11.361C11.2034 4.92957 11.0523 4.86846 10.9408 4.75969C10.8294 4.65092 10.7668 4.5034 10.7668 4.34957C10.7668 4.19574 10.8294 4.04822 10.9408 3.93945C11.0523 3.83068 11.2034 3.76957 11.361 3.76957H18.3692C18.5268 3.76957 18.678 3.83068 18.7894 3.93945C18.9009 4.04822 18.9635 4.19574 18.9635 4.34957C18.9635 4.5034 18.9009 4.65092 18.7894 4.75969C18.678 4.86846 18.5268 4.92957 18.3692 4.92957ZM3.21268 17.8096H18.7717C19.3604 17.809 19.9249 17.5805 20.3412 17.1742C20.7575 16.7679 20.9916 16.217 20.9922 15.6424V6.08957H0.992188V15.6424C0.99273 16.217 1.22685 16.7679 1.64315 17.1742C2.05946 17.5805 2.62393 17.809 3.21268 17.8096ZM12.2832 15.052C12.2827 15.3748 12.1511 15.6844 11.9172 15.9126C11.6832 16.1409 11.366 16.2693 11.0352 16.2696H10.9512C10.6204 16.2693 10.3032 16.1409 10.0693 15.9126C9.83532 15.6844 9.70369 15.3748 9.70325 15.052V12.9272C9.70369 12.6043 9.83532 12.2948 10.0693 12.0665C10.3032 11.8383 10.6204 11.7099 10.9512 11.7096H11.0373C11.3681 11.7099 11.6852 11.8383 11.9192 12.0665C12.1532 12.2948 12.2848 12.6043 12.2852 12.9272L12.2832 15.052ZM16.4635 11.8096V15.0096C16.4635 15.3437 16.3275 15.6642 16.0854 15.9005C15.8433 16.1368 15.5149 16.2696 15.1725 16.2696C14.8301 16.2696 14.5018 16.1368 14.2597 15.9005C14.0175 15.6642 13.8815 15.3437 13.8815 15.0096V11.8096C13.8815 11.4754 14.0175 11.1549 14.2597 10.9186C14.5018 10.6823 14.8301 10.5496 15.1725 10.5496C15.5149 10.5496 15.8433 10.6823 16.0854 10.9186C16.3275 11.1549 16.4635 11.4754 16.4635 11.8096ZM6.40202 10.0032C6.40923 9.93996 6.44186 9.88212 6.49273 9.84237C6.5436 9.80262 6.60856 9.78421 6.67333 9.79117C8.07017 9.9424 9.48183 9.90201 10.8672 9.67117C11.9927 9.48387 13.0926 9.17213 14.1459 8.74197L14.0139 8.46517C13.9922 8.41918 13.9848 8.36796 13.9928 8.31791C14.0008 8.26786 14.0237 8.22123 14.0587 8.18385C14.0937 8.14647 14.1393 8.12001 14.1896 8.1078C14.24 8.09558 14.2929 8.09814 14.3418 8.11517L15.0905 8.38157C15.1556 8.40508 15.2085 8.45277 15.2377 8.51422C15.2669 8.57568 15.27 8.64591 15.2463 8.70957L14.9754 9.43517C14.9575 9.48287 14.9256 9.52433 14.8836 9.55432C14.8417 9.58432 14.7915 9.60149 14.7395 9.60367C14.6876 9.60585 14.6361 9.59295 14.5916 9.56659C14.5472 9.54023 14.5117 9.50159 14.4897 9.45557L14.3569 9.17557C13.2633 9.62486 12.1207 9.95058 10.9512 10.1464C10.0894 10.2894 9.21677 10.3612 8.3426 10.3612C7.7675 10.3613 7.19284 10.3301 6.62129 10.268C6.58904 10.2647 6.55776 10.2553 6.52926 10.2402C6.50076 10.2251 6.4756 10.2047 6.45522 10.1801C6.43484 10.1555 6.41965 10.1272 6.41052 10.0968C6.40139 10.0665 6.3985 10.0346 6.40202 10.0032ZM5.52088 12.6096C5.52088 12.2754 5.65689 11.9549 5.899 11.7186C6.1411 11.4823 6.46947 11.3496 6.81186 11.3496C7.15425 11.3496 7.48262 11.4823 7.72472 11.7186C7.96683 11.9549 8.10284 12.2754 8.10284 12.6096V15.0096C8.10284 15.3437 7.96683 15.6642 7.72472 15.9005C7.48262 16.1368 7.15425 16.2696 6.81186 16.2696C6.46947 16.2696 6.1411 16.1368 5.899 15.9005C5.65689 15.6642 5.52088 15.3437 5.52088 15.0096V12.6096Z" fill="white"/>
</g>
<defs>
<clipPath id="clip0_689_14833">
<rect width="21" height="21" fill="white" transform="translate(0.5)"/>
</clipPath>
</defs>
</svg>
