<svg width="24" height="23" viewBox="0 0 24 23" fill="none" xmlns="http://www.w3.org/2000/svg">
<path d="M9.49121 10.6086H10.3495C11.2781 10.6086 11.7526 9.97563 11.7526 9.34536C11.7526 8.73386 11.2651 8.1123 10.3495 8.1123H9.49121V10.6086Z" fill="white"/>
<path fill-rule="evenodd" clip-rule="evenodd" d="M3.28246 16.7149C3.28246 18.0232 4.40678 19.084 5.79357 19.084H14.5419C15.9287 19.084 17.0531 18.0232 17.0531 16.7149V5.4531C17.0531 4.14472 15.9287 3.08398 14.5419 3.08398H5.79334C4.40654 3.08398 3.28223 4.14472 3.28223 5.4531L3.28246 16.7149ZM8.25943 7.53121C8.25943 7.37709 8.32433 7.22929 8.43984 7.12031C8.55535 7.01133 8.71201 6.95011 8.87537 6.95011H10.3496C11.9979 6.95011 12.9846 8.14249 12.9846 9.34537C12.9846 10.5293 12.0488 11.7708 10.3496 11.7708H9.4913V12.6749L11.468 12.6648C11.5489 12.6644 11.629 12.679 11.7039 12.7078C11.7788 12.7367 11.847 12.7791 11.9045 12.8328C11.962 12.8865 12.0077 12.9503 12.0391 13.0206C12.0704 13.091 12.0868 13.1665 12.0872 13.2428C12.0877 13.3191 12.0722 13.3947 12.0416 13.4654C12.0111 13.5361 11.966 13.6003 11.9092 13.6546C11.8523 13.7089 11.7846 13.752 11.7101 13.7816C11.6355 13.8112 11.5555 13.8266 11.4746 13.827L9.4913 13.8371V14.6365C9.4913 14.7907 9.42641 14.9385 9.3109 15.0474C9.19539 15.1564 9.03872 15.2176 8.87537 15.2176C8.71201 15.2176 8.55535 15.1564 8.43984 15.0474C8.32433 14.9385 8.25943 14.7907 8.25943 14.6365V13.8433L7.97042 13.8449C7.88953 13.8453 7.80936 13.8307 7.73446 13.8019C7.65957 13.773 7.59142 13.7306 7.53392 13.6769C7.47642 13.6232 7.43068 13.5594 7.39932 13.4891C7.36797 13.4187 7.35161 13.3432 7.35117 13.2669C7.35074 13.1906 7.36624 13.115 7.39679 13.0443C7.42734 12.9736 7.47234 12.9094 7.52923 12.8551C7.58611 12.8008 7.65377 12.7577 7.72833 12.7281C7.80289 12.6985 7.8829 12.6831 7.96379 12.6827L8.25943 12.6811V11.7708H7.9671C7.80375 11.7708 7.64708 11.7096 7.53157 11.6006C7.41606 11.4916 7.35117 11.3438 7.35117 11.1897C7.35117 11.0356 7.41606 10.8878 7.53157 10.7788C7.64708 10.6698 7.80375 10.6086 7.9671 10.6086H8.25943V7.53121Z" fill="white"/>
<path d="M18.2314 16.8159C18.2314 16.97 18.2963 17.1178 18.4118 17.2268C18.5274 17.3358 18.684 17.397 18.8474 17.397H19.7187C20.1334 17.397 20.531 17.2416 20.8243 16.965C21.1175 16.6883 21.2822 16.3131 21.2822 15.9219V8.76026C21.2822 8.36904 21.1175 7.99384 20.8243 7.7172C20.531 7.44057 20.1334 7.28516 19.7187 7.28516H18.8474C18.684 7.28516 18.5274 7.34638 18.4118 7.45536C18.2963 7.56433 18.2314 7.71214 18.2314 7.86626V16.8159Z" fill="white"/>
</svg>
