<svg width="30" height="34" viewBox="0 0 30 34" fill="none" xmlns="http://www.w3.org/2000/svg">
<path d="M29.6067 22.933C29.7067 22.7397 29.7134 22.513 29.6134 22.3263C28.2401 19.5797 25.0667 17.7797 24.0067 17.2397C24.0467 16.793 24.0734 16.4197 24.0801 16.153C25.5001 15.473 26.3934 14.5863 26.3934 13.4863C26.3934 12.2397 25.2201 11.1797 23.0201 10.3997C22.8667 6.62634 22.2134 0.333008 19.4667 0.333008C18.3734 0.333008 17.6667 0.819675 17.0334 1.25301C16.4201 1.67301 15.9001 2.03301 15.0001 2.03301C14.1001 2.03301 13.5734 1.67301 12.9667 1.25301C12.3334 0.819675 11.6267 0.333008 10.5334 0.333008C7.78674 0.333008 7.13341 6.62634 6.98674 10.3997C4.78674 11.1797 3.61341 12.2397 3.61341 13.4863C3.61341 14.5863 4.50674 15.473 5.92674 16.153C5.93341 16.4197 5.96007 16.7863 6.00007 17.2397C4.94007 17.7797 1.76674 19.5797 0.393407 22.3263C0.300074 22.5197 0.300074 22.7463 0.400074 22.933C0.500074 23.1263 0.68674 23.253 0.900074 23.2797L3.74007 23.6663L1.72007 26.4463C1.66334 26.5254 1.62446 26.6159 1.60613 26.7115C1.5878 26.8071 1.59046 26.9055 1.61392 27C1.63738 27.0945 1.68108 27.1827 1.74199 27.2586C1.80291 27.3345 1.8796 27.3963 1.96674 27.4397L14.7067 33.5997C14.8001 33.6463 14.9001 33.6663 15.0001 33.6663C15.1001 33.6663 15.2001 33.6463 15.2934 33.5997L28.0334 27.4397C28.2134 27.353 28.3401 27.193 28.3867 26.9997C28.4334 26.8063 28.3934 26.6063 28.2801 26.4463L26.2601 23.6663L29.1067 23.2797C29.3201 23.253 29.5067 23.1263 29.6067 22.933ZM10.1067 21.173H13.3734C13.6334 21.173 13.8667 21.0263 13.9734 20.793L15.0001 18.633L16.0267 20.793C16.1401 21.0263 16.3734 21.173 16.6267 21.173H19.8934C20.6934 21.173 21.4534 20.8863 22.0534 20.3997C21.6067 21.9863 20.8667 23.6663 19.6401 24.8997C18.4201 26.1263 16.8601 26.7463 14.9934 26.7463C13.1267 26.7463 11.5667 26.1263 10.3467 24.8997C9.12008 23.673 8.38674 21.993 7.93341 20.3997C8.54674 20.8863 9.30007 21.173 10.1067 21.173ZM7.32674 16.7063C9.18007 17.3063 11.5401 17.653 13.9601 17.7263L12.9534 19.8397H10.1067C9.70392 19.8395 9.30958 19.7239 8.97046 19.5065C8.63135 19.2891 8.36168 18.979 8.19341 18.613L7.32674 16.7063ZM16.0467 17.7263C18.4601 17.6463 20.8201 17.3063 22.6734 16.7063L21.8067 18.613C21.6385 18.979 21.3688 19.2891 21.0297 19.5065C20.6906 19.7239 20.2962 19.8395 19.8934 19.8397H17.0467L16.0467 17.7263ZM10.5334 1.66634C11.2134 1.66634 11.6534 1.96634 12.2067 2.35301C12.8667 2.80634 13.6867 3.37301 15.0001 3.37301C16.3134 3.37301 17.1334 2.80634 17.7934 2.35301C18.3467 1.97301 18.7934 1.66634 19.4667 1.66634C20.6867 1.66634 21.5467 6.21967 21.6934 10.9197V10.9463L21.7134 11.873C17.5467 13.133 13.0334 13.1263 8.28674 11.853L8.30674 10.9397V10.9197C8.45341 6.21967 9.31341 1.66634 10.5334 1.66634ZM4.94674 13.4863C4.94674 13.073 5.50007 12.433 6.95341 11.833V12.3597C6.95341 12.6597 7.15341 12.9197 7.44007 12.9997C10.1201 13.7597 12.7267 14.1397 15.2534 14.1397C17.7934 14.1397 20.2401 13.753 22.5934 12.993C22.7271 12.9494 22.8435 12.8647 22.9261 12.751C23.0088 12.6372 23.0533 12.5003 23.0534 12.3597V11.833C24.5067 12.4263 25.0601 13.073 25.0601 13.4863C25.0601 14.6797 21.1401 16.4063 15.0067 16.4063C8.86007 16.4063 4.94674 14.6797 4.94674 13.4863ZM24.9734 22.4997C24.859 22.5151 24.7505 22.5599 24.6585 22.6297C24.5665 22.6995 24.4942 22.7919 24.4486 22.898C24.4029 23.0041 24.3855 23.1201 24.398 23.2349C24.4106 23.3497 24.4526 23.4593 24.5201 23.553L26.7267 26.593L15.0001 32.2597L3.26674 26.5863L5.47341 23.5463C5.61341 23.3597 5.64007 23.1063 5.54674 22.893C5.45341 22.6797 5.25341 22.5263 5.02007 22.493L2.07341 22.093C3.24674 20.433 5.14674 19.2263 6.17341 18.6463C6.53341 20.8463 7.38674 23.8063 9.40007 25.8263C10.8801 27.313 12.7601 28.0663 14.9934 28.0663C17.2267 28.0663 19.1067 27.313 20.5867 25.8263C22.6001 23.8063 23.4467 20.8463 23.8134 18.6463C24.8467 19.2197 26.7467 20.433 27.9201 22.093L24.9734 22.4997Z" fill="white"/>
</svg>
