<svg width="24" height="23" viewBox="0 0 24 23" fill="none" xmlns="http://www.w3.org/2000/svg">
<path d="M5.99132 4.32324H5.28378C5.21552 4.32327 5.15006 4.35154 5.10179 4.40185C5.05352 4.45215 5.02639 4.52038 5.02637 4.59152C5.02639 4.66267 5.05352 4.73089 5.10179 4.7812C5.15006 4.8315 5.21552 4.85978 5.28378 4.8598H5.99132C6.05958 4.85978 6.12505 4.8315 6.17332 4.7812C6.22159 4.73089 6.24871 4.66267 6.24874 4.59152C6.2487 4.52038 6.22157 4.45216 6.1733 4.40186C6.12504 4.35155 6.05958 4.32328 5.99132 4.32324ZM7.97278 4.32324H7.26524C7.19698 4.32327 7.13152 4.35154 7.08325 4.40185C7.03497 4.45215 7.00785 4.52038 7.00782 4.59152C7.00785 4.66267 7.03497 4.73089 7.08325 4.7812C7.13152 4.8315 7.19698 4.85978 7.26524 4.8598H7.97278C8.04104 4.85978 8.1065 4.8315 8.15477 4.7812C8.20304 4.73089 8.23017 4.66267 8.23019 4.59152C8.23017 4.52038 8.20304 4.45215 8.15477 4.40185C8.1065 4.35154 8.04104 4.32327 7.97278 4.32324ZM9.95462 4.32324H9.24708C9.17882 4.32327 9.11336 4.35154 9.06509 4.40185C9.01682 4.45215 8.98969 4.52038 8.98967 4.59152C8.98969 4.66267 9.01682 4.73089 9.06509 4.7812C9.11336 4.8315 9.17882 4.85978 9.24708 4.8598H9.95462C10.0229 4.85978 10.0883 4.8315 10.1366 4.7812C10.1849 4.73089 10.212 4.66267 10.212 4.59152C10.212 4.52038 10.1849 4.45215 10.1366 4.40185C10.0883 4.35154 10.0229 4.32327 9.95462 4.32324ZM18.0056 4.59152C18.0056 4.52037 17.9785 4.45214 17.9302 4.40183C17.8819 4.35152 17.8165 4.32325 17.7482 4.32324H14.2866C14.2183 4.32327 14.1529 4.35154 14.1046 4.40185C14.0563 4.45215 14.0292 4.52038 14.0292 4.59152C14.0292 4.66267 14.0563 4.73089 14.1046 4.7812C14.1529 4.8315 14.2183 4.85978 14.2866 4.8598H17.7482C17.8165 4.85978 17.8819 4.8315 17.9302 4.7812C17.9785 4.73089 18.0056 4.66267 18.0056 4.59152ZM5.02637 18.2337C5.02639 18.3048 5.05352 18.373 5.10179 18.4233C5.15006 18.4736 5.21552 18.5019 5.28378 18.5019H5.99132C6.05878 18.5007 6.12306 18.4718 6.17033 18.4217C6.2176 18.3715 6.24409 18.304 6.24409 18.2337C6.24409 18.1633 6.2176 18.0958 6.17033 18.0457C6.12306 17.9955 6.05878 17.9667 5.99132 17.9654H5.28378C5.21552 17.9654 5.15006 17.9937 5.10179 18.044C5.05352 18.0943 5.02639 18.1625 5.02637 18.2337ZM7.26524 18.5019H7.97278C8.04024 18.5007 8.10452 18.4718 8.15179 18.4217C8.19906 18.3715 8.22555 18.304 8.22555 18.2337C8.22555 18.1633 8.19906 18.0958 8.15179 18.0457C8.10452 17.9955 8.04024 17.9667 7.97278 17.9654H7.26524C7.12315 17.9654 7.00782 18.0855 7.00782 18.2337C7.00782 18.3818 7.12315 18.5019 7.26524 18.5019ZM9.24708 18.5019H9.95462C10.0221 18.5007 10.0864 18.4718 10.1336 18.4217C10.1809 18.3715 10.2074 18.304 10.2074 18.2337C10.2074 18.1633 10.1809 18.0958 10.1336 18.0457C10.0864 17.9955 10.0221 17.9667 9.95462 17.9654H9.24708C9.17963 17.9667 9.11534 17.9955 9.06807 18.0457C9.0208 18.0958 8.99431 18.1633 8.99431 18.2337C8.99431 18.304 9.0208 18.3715 9.06807 18.4217C9.11534 18.4718 9.17963 18.5007 9.24708 18.5019ZM14.2866 18.5019H17.7482C17.8156 18.5007 17.8799 18.4718 17.9272 18.4217C17.9745 18.3715 18.001 18.304 18.001 18.2337C18.001 18.1633 17.9745 18.0958 17.9272 18.0457C17.8799 17.9955 17.8156 17.9667 17.7482 17.9654H14.2866C14.1445 17.9654 14.0292 18.0855 14.0292 18.2337C14.0292 18.3818 14.1445 18.5019 14.2866 18.5019Z" fill="white"/>
<path d="M21.0156 11.4139C21.0156 9.86868 20.0958 8.5488 18.8019 8.0015C20.0958 7.45782 21.0156 6.13438 21.0156 4.59273C21.0156 2.56464 19.43 0.912109 17.484 0.912109H5.54381C3.59783 0.912109 2.01562 2.56464 2.01562 4.59273C2.01562 6.13438 2.93198 7.45782 4.22932 8.0015C2.93198 8.5488 2.01562 9.86863 2.01562 11.4139C2.01562 12.9555 2.93198 14.279 4.22932 14.8227C2.93198 15.37 2.01562 16.6898 2.01562 18.2351C2.01562 20.2631 3.59779 21.9121 5.54381 21.9121H17.484C19.43 21.9121 21.0156 20.2632 21.0156 18.2351C21.0156 16.6898 20.0958 15.37 18.8019 14.8227C20.0958 14.279 21.0156 12.9555 21.0156 11.4139ZM20.5008 18.2351C20.5008 19.9663 19.1486 21.3755 17.484 21.3755H5.54381C3.88269 21.3755 2.53046 19.9663 2.53046 18.2351C2.53046 16.5002 3.88269 15.0909 5.54381 15.0909H17.484C19.1486 15.0909 20.5008 16.5002 20.5008 18.2351ZM5.02556 11.4139C5.02551 11.3786 5.03214 11.3437 5.04506 11.3112C5.05798 11.2786 5.07694 11.249 5.10085 11.2241C5.12476 11.1992 5.15316 11.1794 5.18441 11.1659C5.21566 11.1525 5.24916 11.1456 5.28297 11.1456H5.99C6.13414 11.1456 6.24741 11.2637 6.24741 11.4139C6.24746 11.4491 6.24083 11.484 6.22791 11.5166C6.21499 11.5492 6.19603 11.5788 6.17212 11.6037C6.14821 11.6286 6.11981 11.6484 6.08856 11.6618C6.05731 11.6753 6.02381 11.6822 5.99 11.6822H5.28297C5.14225 11.6822 5.02556 11.5605 5.02556 11.4139ZM7.00586 11.4139C7.00581 11.3786 7.01244 11.3437 7.02536 11.3112C7.03828 11.2786 7.05724 11.249 7.08115 11.2241C7.10507 11.1992 7.13346 11.1794 7.16471 11.1659C7.19597 11.1525 7.22946 11.1456 7.26328 11.1456H7.9703C8.11448 11.1456 8.22772 11.2637 8.22772 11.4139C8.22777 11.4491 8.22114 11.484 8.20822 11.5166C8.19531 11.5492 8.17635 11.5788 8.15243 11.6037C8.12852 11.6286 8.10012 11.6484 8.06887 11.6619C8.03761 11.6753 8.00412 11.6822 7.9703 11.6822H7.26328C7.12256 11.6822 7.00586 11.5605 7.00586 11.4139ZM8.98962 11.4139C8.98962 11.2637 9.10286 11.1456 9.24704 11.1456H9.95406C9.98788 11.1456 10.0214 11.1525 10.0526 11.1659C10.0839 11.1794 10.1123 11.1992 10.1362 11.2241C10.1601 11.249 10.1791 11.2786 10.192 11.3112C10.2049 11.3437 10.2115 11.3786 10.2115 11.4139C10.2115 11.5605 10.0948 11.6822 9.95406 11.6822H9.24704C9.21322 11.6822 9.17973 11.6753 9.14847 11.6619C9.11722 11.6484 9.08882 11.6286 9.06491 11.6037C9.04099 11.5788 9.02203 11.5492 9.00912 11.5166C8.9962 11.484 8.98957 11.4491 8.98962 11.4139ZM14.0279 11.4139C14.0279 11.3786 14.0345 11.3437 14.0474 11.3112C14.0603 11.2786 14.0793 11.249 14.1032 11.2241C14.1271 11.1992 14.1555 11.1794 14.1868 11.1659C14.218 11.1525 14.2515 11.1456 14.2853 11.1456H17.7483C17.7821 11.1456 17.8156 11.1525 17.8468 11.1659C17.8781 11.1794 17.9065 11.1992 17.9304 11.2241C17.9543 11.249 17.9733 11.2786 17.9862 11.3112C17.9991 11.3437 18.0057 11.3786 18.0057 11.4139C18.0057 11.5605 17.889 11.6822 17.7483 11.6822H14.2853C14.1446 11.6822 14.0279 11.5605 14.0279 11.4139ZM17.484 7.73327H5.54381C3.88269 7.73327 2.53046 6.32398 2.53046 4.59277C2.53046 2.858 3.88269 1.44871 5.54381 1.44871H17.484C19.1486 1.44871 20.5008 2.858 20.5008 4.59277C20.5008 6.32398 19.1486 7.73327 17.484 7.73327Z" fill="white"/>
</svg>
