<svg width="24" height="23" viewBox="0 0 24 23" fill="none" xmlns="http://www.w3.org/2000/svg">
<path d="M20.625 10.7812H15.5938C14.0168 10.7812 12.7188 12.0793 12.7188 13.6562C12.7188 15.2332 14.0168 16.5312 15.5938 16.5312H18.4688V18.6875C18.4688 19.0821 18.1446 19.4062 17.75 19.4062H6.25C5.06694 19.4062 4.09375 18.4331 4.09375 17.25V6.46875C4.09375 5.28569 5.06694 4.3125 6.25 4.3125H7.6875C8.08209 4.3125 8.40625 3.98834 8.40625 3.59375C8.40625 3.19916 8.08209 2.875 7.6875 2.875H6.25C4.27847 2.875 2.65625 4.49722 2.65625 6.46875V17.25C2.65625 19.2215 4.27847 20.8438 6.25 20.8438H17.75C18.9331 20.8438 19.9062 19.8706 19.9062 18.6875V16.5312H20.625C21.0196 16.5312 21.3438 16.2071 21.3438 15.8125V11.5C21.3438 11.1054 21.0196 10.7812 20.625 10.7812ZM19.9062 15.0938H15.5938C14.8053 15.0938 14.1562 14.4447 14.1562 13.6562C14.1562 12.8678 14.8053 12.2188 15.5938 12.2188H19.9062V15.0938Z" fill="white"/>
<path d="M5.99148 5.80061C5.18935 6.15064 5.45457 7.18779 6.25023 7.18779H17.7502C18.1448 7.18779 18.469 7.51195 18.469 7.90654V8.62529C18.469 9.01989 18.7931 9.34404 19.1877 9.34404C19.5823 9.34404 19.9065 9.01989 19.9065 8.62529V7.90654C19.9065 7.33467 19.6793 6.78622 19.2749 6.38184C18.8706 5.97747 18.3221 5.75029 17.7502 5.75029H17.5202L16.2624 2.60936C16.1912 2.43433 16.0543 2.29416 15.8809 2.21892C15.7076 2.14368 15.5117 2.13935 15.3352 2.20686L5.99148 5.80061ZM15.9677 5.75029H10.1243L15.1915 3.80248L15.9677 5.75029Z" fill="white"/>
</svg>
